Lemonada-Arabic-Bold Italic.ufo
<glyph name="exclam" format="1">
  <advance width="420"/>
  <unicode hex="0021"/>
  <outline>
    <contour>
      <point x="217" y="279"/>
      <point x="262" y="292"/>
      <point x="291" y="317" type="curve"/>
      <point x="327" y="386"/>
      <point x="410" y="570"/>
      <point x="410" y="672" type="curve" smooth="yes"/>
      <point x="410" y="732"/>
      <point x="381" y="775"/>
      <point x="302" y="775" type="curve" smooth="yes"/>
      <point x="234" y="775"/>
      <point x="172" y="753"/>
      <point x="128" y="708" type="curve"/>
      <point x="147" y="690"/>
      <point x="153" y="656"/>
      <point x="153" y="631" type="curve" smooth="yes"/>
      <point x="153" y="566"/>
      <point x="119" y="411"/>
      <point x="119" y="364" type="curve" smooth="yes"/>
      <point x="119" y="314"/>
      <point x="134" y="279"/>
      <point x="189" y="279" type="curve" smooth="yes"/>
    </contour>
    <component base="period" xOffset="10"/>
  </outline>
</glyph>
<glyph name="ampersand" format="1">
  <advance width="757"/>
  <unicode hex="0026"/>
  <outline>
    <contour>
      <point x="469" y="297"/>
      <point x="602" y="325"/>
      <point x="674" y="325" type="curve" smooth="yes"/>
      <point x="697" y="325"/>
      <point x="718" y="323"/>
      <point x="747" y="319" type="curve"/>
      <point x="764" y="346"/>
      <point x="776" y="389"/>
      <point x="776" y="421" type="curve" smooth="yes"/>
      <point x="776" y="458"/>
      <point x="753" y="475"/>
      <point x="704" y="475" type="curve" smooth="yes"/>
      <point x="628" y="475"/>
      <point x="540" y="419"/>
      <point x="398" y="419" type="curve" smooth="yes"/>
      <point x="329" y="419"/>
      <point x="281" y="459"/>
      <point x="281" y="516" type="curve" smooth="yes"/>
      <point x="281" y="574"/>
      <point x="325" y="625"/>
      <point x="402" y="642" type="curve"/>
      <point x="425" y="593"/>
      <point x="471" y="560"/>
      <point x="518" y="560" type="curve" smooth="yes"/>
      <point x="594" y="560"/>
      <point x="631" y="601"/>
      <point x="631" y="658" type="curve" smooth="yes"/>
      <point x="631" y="729"/>
      <point x="550" y="775"/>
      <point x="425" y="775" type="curve" smooth="yes"/>
      <point x="233" y="775"/>
      <point x="83" y="660"/>
      <point x="83" y="512" type="curve" smooth="yes"/>
      <point x="83" y="381"/>
      <point x="192" y="297"/>
      <point x="362" y="297" type="curve" smooth="yes"/>
    </contour>
    <contour>
      <point x="479" y="-92"/>
      <point x="638" y="85"/>
      <point x="630" y="339" type="curve"/>
      <point x="536" y="333" type="line"/>
      <point x="530" y="180"/>
      <point x="435" y="61"/>
      <point x="321" y="61" type="curve" smooth="yes"/>
      <point x="260" y="61"/>
      <point x="221" y="96"/>
      <point x="221" y="173" type="curve" smooth="yes"/>
      <point x="221" y="252"/>
      <point x="260" y="311"/>
      <point x="326" y="356" type="curve"/>
      <point x="193" y="352" type="line"/>
      <point x="89" y="296"/>
      <point x="23" y="198"/>
      <point x="23" y="97" type="curve" smooth="yes"/>
      <point x="23" y="-17"/>
      <point x="111" y="-92"/>
      <point x="245" y="-92" type="curve" smooth="yes"/>
    </contour>
  </outline>
</glyph>
<glyph name="comma" format="1">
  <advance width="332"/>
  <unicode hex="002C"/>
  <outline>
    <contour>
      <point x="118" y="-2" type="line"/>
      <point x="118" y="-51"/>
      <point x="78" y="-121"/>
      <point x="12" y="-152" type="curve"/>
      <point x="27" y="-196" type="line"/>
      <point x="185" y="-163"/>
      <point x="284" y="-44"/>
      <point x="284" y="93" type="curve" smooth="yes"/>
      <point x="284" y="153"/>
      <point x="245" y="208"/>
      <point x="177" y="208" type="curve" smooth="yes"/>
      <point x="109" y="208"/>
      <point x="51" y="152"/>
      <point x="48" y="88" type="curve"/>
    </contour>
  </outline>
</glyph>
<glyph name="period" format="1">
  <advance width="293"/>
  <unicode hex="002E"/>
  <outline>
    <contour>
      <point x="30" y="21"/>
      <point x="76" y="-25"/>
      <point x="137" y="-25" type="curve" smooth="yes"/>
      <point x="207" y="-25"/>
      <point x="263" y="35"/>
      <point x="263" y="102" type="curve" smooth="yes"/>
      <point x="263" y="161"/>
      <point x="217" y="207"/>
      <point x="156" y="207" type="curve" smooth="yes"/>
      <point x="86" y="207"/>
      <point x="30" y="147"/>
      <point x="30" y="80" type="curve" smooth="yes"/>
    </contour>
  </outline>
</glyph>
<glyph name="one" format="1">
  <advance width="554"/>
  <unicode hex="0031"/>
  <outline>
    <contour>
      <point x="203" y="19"/>
      <point x="242" y="-25"/>
      <point x="327" y="-25" type="curve" smooth="yes"/>
      <point x="368" y="-25"/>
      <point x="410" y="-13"/>
      <point x="455" y="12" type="curve"/>
      <point x="436" y="44"/>
      <point x="426" y="86"/>
      <point x="426" y="133" type="curve" smooth="yes"/>
      <point x="426" y="284"/>
      <point x="504" y="531"/>
      <point x="504" y="620" type="curve" smooth="yes"/>
      <point x="504" y="673"/>
      <point x="480" y="700"/>
      <point x="433" y="700" type="curve" smooth="yes"/>
      <point x="343" y="700"/>
      <point x="273" y="604"/>
      <point x="90" y="563" type="curve"/>
      <point x="100" y="471"/>
      <point x="158" y="417"/>
      <point x="245" y="417" type="curve"/>
      <point x="209" y="221"/>
      <point x="203" y="176"/>
      <point x="203" y="115" type="curve" smooth="yes"/>
    </contour>
  </outline>
</glyph>
<glyph name="two" format="1">
  <advance width="711"/>
  <unicode hex="0032"/>
  <outline>
    <contour>
      <point x="526" y="267"/>
      <point x="613" y="375"/>
      <point x="613" y="500" type="curve" smooth="yes"/>
      <point x="613" y="612"/>
      <point x="514" y="700"/>
      <point x="371" y="700" type="curve" smooth="yes"/>
      <point x="208" y="700"/>
      <point x="98" y="625"/>
      <point x="98" y="513" type="curve" smooth="yes"/>
      <point x="98" y="453"/>
      <point x="136" y="414"/>
      <point x="199" y="407" type="curve"/>
      <point x="217" y="494"/>
      <point x="269" y="535"/>
      <point x="327" y="535" type="curve" smooth="yes"/>
      <point x="384" y="535"/>
      <point x="412" y="501"/>
      <point x="412" y="449" type="curve" smooth="yes"/>
      <point x="412" y="379"/>
      <point x="336" y="266"/>
      <point x="95" y="141" type="curve"/>
      <point x="297" y="97" type="line"/>
    </contour>
    <contour>
      <point x="585" y="-30"/>
      <point x="660" y="27"/>
      <point x="660" y="100" type="curve" smooth="yes"/>
      <point x="660" y="132"/>
      <point x="653" y="162"/>
      <point x="636" y="204" type="curve"/>
      <point x="489" y="141" type="line"/>
      <point x="410" y="141"/>
      <point x="259" y="212"/>
      <point x="187" y="212" type="curve" smooth="yes"/>
      <point x="95" y="211"/>
      <point x="31" y="155"/>
      <point x="31" y="78" type="curve" smooth="yes"/>
      <point x="31" y="20"/>
      <point x="71" y="-22"/>
      <point x="128" y="-22" type="curve" smooth="yes"/>
      <point x="172" y="-22"/>
      <point x="207" y="-8"/>
      <point x="251" y="28" type="curve"/>
      <point x="332" y="-3"/>
      <point x="402" y="-30"/>
      <point x="489" y="-30" type="curve" smooth="yes"/>
    </contour>
  </outline>
</glyph>
<glyph name="four" format="1">
  <advance width="714"/>
  <unicode hex="0034"/>
  <outline>
    <contour>
      <point x="369" y="46"/>
      <point x="369" y="-32" type="curve" smooth="yes"/>
      <point x="369" y="-120"/>
      <point x="417" y="-170"/>
      <point x="503" y="-170" type="curve" smooth="yes"/>
      <point x="551" y="-170"/>
      <point x="588" y="-160"/>
      <point x="637" y="-134" type="curve"/>
      <point x="621" y="-102"/>
      <point x="613" y="-69"/>
      <point x="613" y="-41" type="curve" smooth="yes"/>
      <point x="613" y="118"/>
      <point x="682" y="290"/>
      <point x="682" y="341" type="curve" smooth="yes"/>
      <point x="682" y="369"/>
      <point x="669" y="377"/>
      <point x="627" y="377" type="curve" smooth="yes"/>
      <point x="576" y="377"/>
      <point x="504" y="352"/>
      <point x="475" y="324" type="curve"/>
      <point x="421" y="219"/>
    </contour>
    <contour>
      <point x="415" y="130" type="line"/>
      <point x="191" y="130" type="line"/>
      <point x="365" y="302"/>
      <point x="450" y="445"/>
      <point x="450" y="566" type="curve" smooth="yes"/>
      <point x="450" y="656"/>
      <point x="405" y="700"/>
      <point x="315" y="700" type="curve" smooth="yes"/>
      <point x="287" y="700"/>
      <point x="240" y="690"/>
      <point x="208" y="677" type="curve"/>
      <point x="214" y="662"/>
      <point x="216" y="649"/>
      <point x="216" y="630" type="curve" smooth="yes"/>
      <point x="216" y="467"/>
      <point x="24" y="229"/>
      <point x="24" y="115" type="curve" smooth="yes"/>
      <point x="24" y="40"/>
      <point x="89" y="0"/>
      <point x="210" y="0" type="curve" smooth="yes"/>
      <point x="266" y="0"/>
      <point x="340" y="8"/>
      <point x="386" y="19" type="curve"/>
    </contour>
  </outline>
</glyph>
<glyph name="five" format="1">
  <advance width="625"/>
  <unicode hex="0035"/>
  <outline>
    <contour>
      <point x="429" y="-156"/>
      <point x="595" y="-42"/>
      <point x="595" y="110" type="curve" smooth="yes"/>
      <point x="595" y="247"/>
      <point x="481" y="333"/>
      <point x="296" y="333" type="curve"/>
      <point x="320" y="478" type="line"/>
      <point x="157" y="543" type="line"/>
      <point x="106" y="231" type="line"/>
      <point x="105" y="215"/>
      <point x="115" y="208"/>
      <point x="132" y="208" type="curve" smooth="yes"/>
      <point x="146" y="208"/>
      <point x="188" y="218"/>
      <point x="227" y="218" type="curve" smooth="yes"/>
      <point x="357" y="218"/>
      <point x="392" y="151"/>
      <point x="392" y="97" type="curve" smooth="yes"/>
      <point x="392" y="26"/>
      <point x="331" y="-29"/>
      <point x="255" y="-29" type="curve"/>
      <point x="227" y="22"/>
      <point x="176" y="56"/>
      <point x="127" y="56" type="curve" smooth="yes"/>
      <point x="60" y="56"/>
      <point x="10" y="14"/>
      <point x="10" y="-45" type="curve" smooth="yes"/>
      <point x="10" y="-116"/>
      <point x="82" y="-156"/>
      <point x="209" y="-156" type="curve" smooth="yes"/>
    </contour>
    <contour>
      <point x="547" y="468"/>
      <point x="620" y="511"/>
      <point x="620" y="622" type="curve" smooth="yes"/>
      <point x="620" y="647"/>
      <point x="615" y="678"/>
      <point x="607" y="708" type="curve"/>
      <point x="523" y="666"/>
      <point x="398" y="625"/>
      <point x="339" y="622" type="curve"/>
      <point x="315" y="676"/>
      <point x="268" y="703"/>
      <point x="224" y="703" type="curve" smooth="yes"/>
      <point x="159" y="703"/>
      <point x="120" y="665"/>
      <point x="120" y="603" type="curve" smooth="yes"/>
      <point x="120" y="519"/>
      <point x="204" y="468"/>
      <point x="347" y="468" type="curve" smooth="yes"/>
    </contour>
  </outline>
</glyph>
<glyph name="seven" format="1">
  <advance width="604"/>
  <unicode hex="0037"/>
  <outline>
    <contour>
      <point x="348" y="498" type="line"/>
      <point x="218" y="314"/>
      <point x="129" y="121"/>
      <point x="129" y="0" type="curve" smooth="yes"/>
      <point x="129" y="-87"/>
      <point x="183" y="-121"/>
      <point x="265" y="-121" type="curve" smooth="yes"/>
      <point x="299" y="-121"/>
      <point x="333" y="-115"/>
      <point x="372" y="-98" type="curve"/>
      <point x="364" y="-83"/>
      <point x="363" y="-70"/>
      <point x="363" y="-51" type="curve" smooth="yes"/>
      <point x="363" y="129"/>
      <point x="460" y="386"/>
      <point x="547" y="527" type="curve"/>
    </contour>
    <contour>
      <point x="526" y="469"/>
      <point x="629" y="525"/>
      <point x="629" y="618" type="curve" smooth="yes"/>
      <point x="629" y="672"/>
      <point x="592" y="704"/>
      <point x="530" y="704" type="curve" smooth="yes"/>
      <point x="481" y="704"/>
      <point x="429" y="677"/>
      <point x="400" y="623" type="curve"/>
      <point x="324" y="626"/>
      <point x="168" y="667"/>
      <point x="67" y="709" type="curve"/>
      <point x="56" y="676"/>
      <point x="50" y="644"/>
      <point x="50" y="617" type="curve" smooth="yes"/>
      <point x="50" y="510"/>
      <point x="134" y="469"/>
      <point x="353" y="469" type="curve" smooth="yes"/>
    </contour>
  </outline>
</glyph>
<glyph name="question" format="1">
  <advance width="589"/>
  <unicode hex="003F"/>
  <outline>
    <contour>
      <point x="171" y="310"/>
      <point x="206" y="263"/>
      <point x="286" y="263" type="curve" smooth="yes"/>
      <point x="437" y="263"/>
      <point x="559" y="378"/>
      <point x="559" y="542" type="curve" smooth="yes"/>
      <point x="559" y="659"/>
      <point x="488" y="775"/>
      <point x="295" y="775" type="curve" smooth="yes"/>
      <point x="115" y="775"/>
      <point x="30" y="676"/>
      <point x="30" y="584" type="curve" smooth="yes"/>
      <point x="30" y="534"/>
      <point x="57" y="482"/>
      <point x="142" y="482" type="curve"/>
      <point x="161" y="572"/>
      <point x="220" y="600"/>
      <point x="265" y="600" type="curve" smooth="yes"/>
      <point x="321" y="600"/>
      <point x="343" y="561"/>
      <point x="343" y="520" type="curve" smooth="yes"/>
      <point x="343" y="443"/>
      <point x="285" y="387"/>
      <point x="171" y="376" type="curve"/>
    </contour>
    <component base="period" xOffset="54"/>
  </outline>
</glyph>
<glyph name="A" format="1">
  <advance width="767"/>
  <unicode hex="0041"/>
  <outline>
    <contour>
      <point x="161" y="-29"/>
      <point x="216" y="-11"/>
      <point x="253" y="16" type="curve"/>
      <point x="238" y="44"/>
      <point x="232" y="71"/>
      <point x="232" y="110" type="curve" smooth="yes"/>
      <point x="232" y="197"/>
      <point x="315" y="382"/>
      <point x="447" y="593" type="curve"/>
      <point x="459" y="593" type="line"/>
      <point x="455" y="516"/>
      <point x="453" y="408"/>
      <point x="453" y="292" type="curve" smooth="yes"/>
      <point x="452" y="65"/>
      <point x="496" y="-29"/>
      <point x="602" y="-29" type="curve" smooth="yes"/>
      <point x="647" y="-29"/>
      <point x="688" y="-14"/>
      <point x="727" y="16" type="curve"/>
      <point x="648" y="125"/>
      <point x="664" y="333"/>
      <point x="664" y="578" type="curve" smooth="yes"/>
      <point x="664" y="680"/>
      <point x="632" y="725"/>
      <point x="559" y="725" type="curve" smooth="yes"/>
      <point x="533" y="725"/>
      <point x="507" y="717"/>
      <point x="475" y="700" type="curve"/>
      <point x="459" y="716"/>
      <point x="430" y="725"/>
      <point x="393" y="725" type="curve" smooth="yes"/>
      <point x="322" y="725"/>
      <point x="266" y="708"/>
      <point x="191" y="662" type="curve"/>
      <point x="224" y="577" type="line"/>
      <point x="68" y="271"/>
      <point x="20" y="151"/>
      <point x="20" y="69" type="curve" smooth="yes"/>
      <point x="20" y="5"/>
      <point x="52" y="-29"/>
      <point x="113" y="-29" type="curve" smooth="yes"/>
    </contour>
    <contour>
      <point x="526" y="161" type="line"/>
      <point x="546" y="280" type="line"/>
      <point x="200" y="280" type="line"/>
      <point x="178" y="161" type="line"/>
    </contour>
    <contour>
      <point x="727" y="16" type="move" name="ogonek"/>
    </contour>
    <contour>
      <point x="353" y="0" type="move" name="bottom"/>
    </contour>
    <contour>
      <point x="478" y="710" type="move" name="top"/>
    </contour>
  </outline>
</glyph>
<glyph name="B" format="1">
  <advance width="789"/>
  <unicode hex="0042"/>
  <outline>
    <contour>
      <point x="588" y="-24"/>
      <point x="727" y="59"/>
      <point x="727" y="188" type="curve" smooth="yes"/>
      <point x="727" y="281"/>
      <point x="664" y="348"/>
      <point x="557" y="368" type="curve"/>
      <point x="666" y="410"/>
      <point x="724" y="481"/>
      <point x="724" y="574" type="curve" smooth="yes"/>
      <point x="724" y="668"/>
      <point x="659" y="725"/>
      <point x="552" y="725" type="curve" smooth="yes"/>
      <point x="486" y="725"/>
      <point x="418" y="705"/>
      <point x="350" y="666" type="curve"/>
      <point x="342" y="706"/>
      <point x="317" y="726"/>
      <point x="276" y="726" type="curve" smooth="yes"/>
      <point x="215" y="726"/>
      <point x="144" y="701"/>
      <point x="70" y="653" type="curve"/>
      <point x="123" y="546" type="line"/>
      <point x="77" y="283"/>
      <point x="65" y="197"/>
      <point x="65" y="140" type="curve" smooth="yes"/>
      <point x="65" y="24"/>
      <point x="156" y="-24"/>
      <point x="373" y="-24" type="curve" smooth="yes"/>
    </contour>
    <contour>
      <point x="346" y="89"/>
      <point x="304" y="97"/>
      <point x="273" y="111" type="curve"/>
      <point x="285" y="242"/>
      <point x="313" y="441"/>
      <point x="340" y="579" type="curve"/>
      <point x="366" y="589"/>
      <point x="392" y="593"/>
      <point x="421" y="593" type="curve" smooth="yes"/>
      <point x="477" y="593"/>
      <point x="506" y="568"/>
      <point x="506" y="518" type="curve" smooth="yes"/>
      <point x="506" y="438"/>
      <point x="424" y="384"/>
      <point x="294" y="378" type="curve"/>
      <point x="281" y="282" type="line"/>
      <point x="316" y="295"/>
      <point x="354" y="302"/>
      <point x="387" y="302" type="curve" smooth="yes"/>
      <point x="465" y="302"/>
      <point x="509" y="265"/>
      <point x="509" y="201" type="curve" smooth="yes"/>
      <point x="509" y="133"/>
      <point x="459" y="89"/>
      <point x="383" y="89" type="curve" smooth="yes"/>
    </contour>
  </outline>
</glyph>
<glyph name="C" format="1">
  <advance width="718"/>
  <unicode hex="0043"/>
  <outline>
    <contour>
      <point x="525" y="-25"/>
      <point x="663" y="62"/>
      <point x="663" y="171" type="curve" smooth="yes"/>
      <point x="663" y="234"/>
      <point x="615" y="265"/>
      <point x="530" y="265" type="curve"/>
      <point x="525" y="162"/>
      <point x="456" y="81"/>
      <point x="366" y="81" type="curve" smooth="yes"/>
      <point x="291" y="81"/>
      <point x="247" y="152"/>
      <point x="247" y="274" type="curve" smooth="yes"/>
      <point x="247" y="422"/>
      <point x="323" y="555"/>
      <point x="424" y="594" type="curve"/>
      <point x="456" y="527"/>
      <point x="514" y="491"/>
      <point x="578" y="491" type="curve" smooth="yes"/>
      <point x="646" y="491"/>
      <point x="695" y="536"/>
      <point x="695" y="599" type="curve" smooth="yes"/>
      <point x="695" y="677"/>
      <point x="614" y="726"/>
      <point x="488" y="726" type="curve" smooth="yes"/>
      <point x="224" y="726"/>
      <point x="29" y="538"/>
      <point x="29" y="278" type="curve" smooth="yes"/>
      <point x="29" y="87"/>
      <point x="150" y="-25"/>
      <point x="354" y="-25" type="curve" smooth="yes"/>
    </contour>
    <contour>
      <point x="456" y="696" type="move" name="top"/>
    </contour>
    <contour>
      <point x="314" y="0" type="move" name="bottom"/>
    </contour>
  </outline>
</glyph>
<glyph name="D" format="1">
  <advance width="836"/>
  <unicode hex="0044"/>
  <outline>
    <contour>
      <point x="601" y="-25"/>
      <point x="796" y="158"/>
      <point x="796" y="419" type="curve" smooth="yes"/>
      <point x="796" y="602"/>
      <point x="675" y="726"/>
      <point x="494" y="726" type="curve" smooth="yes"/>
      <point x="392" y="726"/>
      <point x="330" y="701"/>
      <point x="235" y="620" type="curve"/>
      <point x="265" y="538" type="line"/>
      <point x="319" y="578"/>
      <point x="362" y="596"/>
      <point x="403" y="596" type="curve" smooth="yes"/>
      <point x="513" y="596"/>
      <point x="578" y="517"/>
      <point x="578" y="384" type="curve" smooth="yes"/>
      <point x="578" y="211"/>
      <point x="481" y="89"/>
      <point x="343" y="89" type="curve" smooth="yes"/>
      <point x="319" y="89"/>
      <point x="295" y="94"/>
      <point x="276" y="103" type="curve"/>
      <point x="276" y="162"/>
      <point x="353" y="558"/>
      <point x="353" y="632" type="curve" smooth="yes"/>
      <point x="353" y="695"/>
      <point x="327" y="726"/>
      <point x="276" y="726" type="curve" smooth="yes"/>
      <point x="215" y="726"/>
      <point x="144" y="701"/>
      <point x="70" y="653" type="curve"/>
      <point x="123" y="546" type="line"/>
      <point x="74" y="286"/>
      <point x="60" y="199"/>
      <point x="60" y="143" type="curve" smooth="yes"/>
      <point x="60" y="38"/>
      <point x="158" y="-25"/>
      <point x="323" y="-25" type="curve" smooth="yes"/>
    </contour>
    <contour>
      <point x="226" y="355" type="move" name="center"/>
    </contour>
    <contour>
      <point x="356" y="0" type="move" name="bottom"/>
    </contour>
    <contour>
      <point x="481" y="710" type="move" name="top"/>
    </contour>
  </outline>
</glyph>
<glyph name="I" format="1">
  <advance width="382"/>
  <unicode hex="0049"/>
  <outline>
    <contour>
      <point x="60" y="15"/>
      <point x="96" y="-25"/>
      <point x="182" y="-25" type="curve" smooth="yes"/>
      <point x="227" y="-25"/>
      <point x="267" y="-11"/>
      <point x="306" y="20" type="curve"/>
      <point x="284" y="51"/>
      <point x="276" y="84"/>
      <point x="276" y="145" type="curve" smooth="yes"/>
      <point x="276" y="222"/>
      <point x="353" y="564"/>
      <point x="353" y="632" type="curve" smooth="yes"/>
      <point x="353" y="695"/>
      <point x="327" y="726"/>
      <point x="276" y="726" type="curve" smooth="yes"/>
      <point x="215" y="726"/>
      <point x="144" y="701"/>
      <point x="70" y="653" type="curve"/>
      <point x="123" y="546" type="line"/>
      <point x="72" y="254"/>
      <point x="60" y="168"/>
      <point x="60" y="110" type="curve" smooth="yes"/>
    </contour>
    <contour>
      <point x="306" y="20" type="move" name="ogonek"/>
    </contour>
    <contour>
      <point x="255" y="710" type="move" name="top"/>
    </contour>
    <contour>
      <point x="20" y="710" type="move" name="topleft"/>
    </contour>
    <contour>
      <point x="170" y="0" type="move" name="bottom"/>
    </contour>
  </outline>
</glyph>
<glyph name="L" format="1">
  <advance width="553"/>
  <unicode hex="004C"/>
  <outline>
    <contour>
      <point x="229" y="-26"/>
      <point x="269" y="-12"/>
      <point x="306" y="19" type="curve"/>
      <point x="284" y="50"/>
      <point x="276" y="83"/>
      <point x="276" y="144" type="curve" smooth="yes"/>
      <point x="276" y="221"/>
      <point x="353" y="564"/>
      <point x="353" y="632" type="curve" smooth="yes"/>
      <point x="353" y="695"/>
      <point x="327" y="726"/>
      <point x="276" y="726" type="curve" smooth="yes"/>
      <point x="215" y="726"/>
      <point x="144" y="701"/>
      <point x="70" y="653" type="curve"/>
      <point x="123" y="546" type="line"/>
      <point x="74" y="264"/>
      <point x="60" y="169"/>
      <point x="60" y="109" type="curve" smooth="yes"/>
      <point x="60" y="14"/>
      <point x="96" y="-26"/>
      <point x="182" y="-26" type="curve" smooth="yes"/>
    </contour>
    <contour>
      <point x="489" y="-25"/>
      <point x="543" y="24"/>
      <point x="543" y="111" type="curve" smooth="yes"/>
      <point x="543" y="138"/>
      <point x="539" y="157"/>
      <point x="532" y="175" type="curve"/>
      <point x="484" y="156"/>
      <point x="433" y="143"/>
      <point x="384" y="136" type="curve"/>
      <point x="260" y="136" type="line"/>
      <point x="211" y="14" type="line"/>
      <point x="288" y="-18"/>
      <point x="339" y="-25"/>
      <point x="393" y="-25" type="curve" smooth="yes"/>
    </contour>
    <contour>
      <point x="277" y="0" type="move" name="bottom"/>
    </contour>
    <contour>
      <point x="247" y="710" type="move" name="top"/>
    </contour>
    <contour>
      <point x="383" y="610" type="move" name="topright"/>
    </contour>
    <contour>
      <point x="477" y="385" type="move" name="center"/>
    </contour>
  </outline>
</glyph>
<glyph name="M" format="1">
  <advance width="1033"/>
  <unicode hex="004D"/>
  <outline>
    <contour>
      <point x="225" y="-26"/>
      <point x="265" y="-12"/>
      <point x="306" y="19" type="curve"/>
      <point x="286" y="51"/>
      <point x="276" y="96"/>
      <point x="276" y="164" type="curve" smooth="yes"/>
      <point x="276" y="216"/>
      <point x="304" y="376"/>
      <point x="335" y="510" type="curve"/>
      <point x="345" y="510" type="line"/>
      <point x="366" y="125"/>
      <point x="405" y="41"/>
      <point x="478" y="41" type="curve" smooth="yes"/>
      <point x="516" y="41"/>
      <point x="558" y="56"/>
      <point x="591" y="87" type="curve"/>
      <point x="603" y="203"/>
      <point x="662" y="387"/>
      <point x="759" y="510" type="curve"/>
      <point x="769" y="510" type="line"/>
      <point x="731" y="315"/>
      <point x="710" y="195"/>
      <point x="710" y="129" type="curve" smooth="yes"/>
      <point x="710" y="25"/>
      <point x="742" y="-26"/>
      <point x="832" y="-26" type="curve" smooth="yes"/>
      <point x="875" y="-26"/>
      <point x="915" y="-12"/>
      <point x="956" y="19" type="curve"/>
      <point x="936" y="51"/>
      <point x="926" y="96"/>
      <point x="926" y="164" type="curve" smooth="yes"/>
      <point x="926" y="235"/>
      <point x="1003" y="550"/>
      <point x="1003" y="612" type="curve" smooth="yes"/>
      <point x="1003" y="670"/>
      <point x="982" y="720"/>
      <point x="893" y="720" type="curve" smooth="yes"/>
      <point x="686" y="720"/>
      <point x="566" y="456"/>
      <point x="516" y="293" type="curve"/>
      <point x="504" y="293" type="line"/>
      <point x="472" y="665"/>
      <point x="405" y="726"/>
      <point x="276" y="726" type="curve" smooth="yes"/>
      <point x="205" y="726"/>
      <point x="132" y="693"/>
      <point x="70" y="653" type="curve"/>
      <point x="123" y="546" type="line"/>
      <point x="83" y="325"/>
      <point x="60" y="196"/>
      <point x="60" y="129" type="curve" smooth="yes"/>
      <point x="60" y="25"/>
      <point x="92" y="-26"/>
      <point x="182" y="-26" type="curve" smooth="yes"/>
    </contour>
  </outline>
</glyph>
<glyph name="N" format="1">
  <advance width="863"/>
  <unicode hex="004E"/>
  <outline>
    <contour>
      <point x="654" y="243" type="line"/>
      <point x="544" y="243" type="line"/>
      <point x="477" y="653"/>
      <point x="436" y="726"/>
      <point x="276" y="726" type="curve"/>
      <point x="289" y="546" type="line"/>
      <point x="353" y="546" type="line"/>
      <point x="430" y="77"/>
      <point x="486" y="-26"/>
      <point x="663" y="-25" type="curve"/>
    </contour>
    <contour>
      <point x="227" y="-26"/>
      <point x="267" y="-12"/>
      <point x="306" y="19" type="curve"/>
      <point x="284" y="50"/>
      <point x="276" y="83"/>
      <point x="276" y="144" type="curve" smooth="yes"/>
      <point x="276" y="221"/>
      <point x="353" y="564"/>
      <point x="353" y="632" type="curve" smooth="yes"/>
      <point x="353" y="695"/>
      <point x="327" y="726"/>
      <point x="276" y="726" type="curve" smooth="yes"/>
      <point x="215" y="726"/>
      <point x="144" y="701"/>
      <point x="70" y="653" type="curve"/>
      <point x="123" y="546" type="line"/>
      <point x="72" y="253"/>
      <point x="60" y="167"/>
      <point x="60" y="109" type="curve" smooth="yes"/>
      <point x="60" y="14"/>
      <point x="96" y="-26"/>
      <point x="182" y="-26" type="curve" smooth="yes"/>
    </contour>
    <contour>
      <point x="708" y="-25"/>
      <point x="748" y="-11"/>
      <point x="787" y="20" type="curve"/>
      <point x="765" y="51"/>
      <point x="757" y="84"/>
      <point x="757" y="145" type="curve" smooth="yes"/>
      <point x="757" y="222"/>
      <point x="834" y="565"/>
      <point x="834" y="633" type="curve" smooth="yes"/>
      <point x="834" y="696"/>
      <point x="808" y="727"/>
      <point x="757" y="727" type="curve" smooth="yes"/>
      <point x="699" y="727"/>
      <point x="631" y="702"/>
      <point x="561" y="654" type="curve"/>
      <point x="604" y="547" type="line"/>
      <point x="553" y="254"/>
      <point x="541" y="168"/>
      <point x="541" y="110" type="curve" smooth="yes"/>
      <point x="541" y="15"/>
      <point x="577" y="-25"/>
      <point x="663" y="-25" type="curve" smooth="yes"/>
    </contour>
    <contour>
      <point x="495" y="710" type="move" name="top"/>
    </contour>
    <contour>
      <point x="370" y="0" type="move" name="bottom"/>
    </contour>
  </outline>
</glyph>
<glyph name="O" format="1">
  <advance width="773"/>
  <unicode hex="004F"/>
  <outline>
    <contour>
      <point x="591" y="169"/>
      <point x="493" y="81"/>
      <point x="394" y="81" type="curve" smooth="yes"/>
      <point x="306" y="81"/>
      <point x="248" y="149"/>
      <point x="248" y="283" type="curve" smooth="yes"/>
      <point x="248" y="441"/>
      <point x="334" y="575"/>
      <point x="469" y="575" type="curve" smooth="yes"/>
      <point x="486" y="575"/>
      <point x="513" y="571"/>
      <point x="527" y="567" type="curve"/>
      <point x="538" y="591"/>
      <point x="541" y="605"/>
      <point x="541" y="629" type="curve" smooth="yes"/>
      <point x="541" y="695"/>
      <point x="506" y="725"/>
      <point x="416" y="725" type="curve" smooth="yes"/>
      <point x="213" y="725"/>
      <point x="30" y="550"/>
      <point x="30" y="283" type="curve" smooth="yes"/>
      <point x="30" y="101"/>
      <point x="154" y="-25"/>
      <point x="346" y="-25" type="curve" smooth="yes"/>
      <point x="579" y="-25"/>
      <point x="753" y="167"/>
      <point x="753" y="424" type="curve" smooth="yes"/>
      <point x="753" y="547"/>
      <point x="701" y="622"/>
      <point x="611" y="622" type="curve" smooth="yes"/>
      <point x="537" y="622"/>
      <point x="482" y="563"/>
      <point x="482" y="487" type="curve"/>
      <point x="482" y="412"/>
      <point x="515" y="341"/>
      <point x="612" y="296" type="curve"/>
    </contour>
    <contour>
      <point x="349" y="0" type="move" name="bottom"/>
    </contour>
    <contour>
      <point x="526" y="10" type="move" name="ogonek"/>
    </contour>
    <contour>
      <point x="461" y="710" type="move" name="top"/>
    </contour>
    <contour>
      <point x="611" y="622" type="move" name="topright"/>
    </contour>
    <contour>
      <point x="25" y="710" type="move" name="topleft"/>
    </contour>
    <contour>
      <point x="437" y="355" type="move" name="center"/>
    </contour>
  </outline>
</glyph>
<glyph name="T" format="1">
  <advance width="644"/>
  <unicode hex="0054"/>
  <outline>
    <contour>
      <point x="340" y="-26"/>
      <point x="380" y="-12"/>
      <point x="421" y="19" type="curve"/>
      <point x="401" y="51"/>
      <point x="391" y="96"/>
      <point x="391" y="164" type="curve" smooth="yes"/>
      <point x="391" y="223"/>
      <point x="433" y="419"/>
      <point x="460" y="564" type="curve"/>
      <point x="249" y="606" type="line"/>
      <point x="202" y="353"/>
      <point x="175" y="205"/>
      <point x="175" y="129" type="curve" smooth="yes"/>
      <point x="175" y="25"/>
      <point x="207" y="-26"/>
      <point x="297" y="-26" type="curve" smooth="yes"/>
    </contour>
    <contour>
      <point x="607" y="485"/>
      <point x="664" y="536"/>
      <point x="664" y="618" type="curve" smooth="yes"/>
      <point x="664" y="655"/>
      <point x="657" y="687"/>
      <point x="646" y="713" type="curve"/>
      <point x="494" y="674" type="line"/>
      <point x="388" y="677"/>
      <point x="291" y="715"/>
      <point x="189" y="715" type="curve" smooth="yes"/>
      <point x="97" y="715"/>
      <point x="40" y="664"/>
      <point x="40" y="582" type="curve" smooth="yes"/>
      <point x="40" y="545"/>
      <point x="47" y="513"/>
      <point x="58" y="487" type="curve"/>
      <point x="210" y="526" type="line"/>
      <point x="316" y="523"/>
      <point x="413" y="485"/>
      <point x="515" y="485" type="curve" smooth="yes"/>
    </contour>
    <contour>
      <point x="312" y="305" type="move" name="center"/>
    </contour>
    <contour>
      <point x="271" y="0" type="move" name="bottom"/>
    </contour>
    <contour>
      <point x="386" y="710" type="move" name="top"/>
    </contour>
  </outline>
</glyph>
<glyph name="Y" format="1">
  <advance width="841"/>
  <unicode hex="0059"/>
  <outline>
    <contour>
      <point x="468" y="53" type="line"/>
      <point x="206" y="53"/>
      <point x="492" y="726"/>
      <point x="190" y="726" type="curve" smooth="yes"/>
      <point x="145" y="726"/>
      <point x="103" y="711"/>
      <point x="65" y="681" type="curve"/>
      <point x="230" y="527"/>
      <point x="-9" y="-30"/>
      <point x="356" y="-30" type="curve"/>
    </contour>
    <contour>
      <point x="806" y="694"/>
      <point x="775" y="726"/>
      <point x="714" y="726" type="curve" smooth="yes"/>
      <point x="668" y="726"/>
      <point x="612" y="709"/>
      <point x="573" y="681" type="curve"/>
      <point x="589" y="651"/>
      <point x="595" y="622"/>
      <point x="595" y="587" type="curve" smooth="yes"/>
      <point x="595" y="144"/>
      <point x="298" y="-85"/>
      <point x="130" y="-85" type="curve" smooth="yes"/>
      <point x="47" y="-85"/>
      <point x="3" y="-49"/>
      <point x="-21" y="-12" type="curve"/>
      <point x="-45" y="-31"/>
      <point x="-70" y="-72"/>
      <point x="-70" y="-113" type="curve" smooth="yes"/>
      <point x="-70" y="-194"/>
      <point x="-6" y="-242"/>
      <point x="121" y="-242" type="curve" smooth="yes"/>
      <point x="547" y="-242"/>
      <point x="806" y="334"/>
      <point x="806" y="630" type="curve"/>
    </contour>
    <contour>
      <point x="484" y="710" type="move" name="top"/>
    </contour>
    <contour>
      <point x="341" y="-200" type="move" name="bottom"/>
    </contour>
    <contour>
      <point x="20" y="710" type="move" name="topleft"/>
    </contour>
  </outline>
</glyph>
<glyph name="bracketleft" format="1">
  <advance width="455"/>
  <unicode hex="005B"/>
  <outline>
    <contour>
      <point x="349" y="-157"/>
      <point x="389" y="-120"/>
      <point x="389" y="-58" type="curve" smooth="yes"/>
      <point x="389" y="-48"/>
      <point x="386" y="-23"/>
      <point x="381" y="-6" type="curve"/>
      <point x="361" y="-15"/>
      <point x="290" y="-25"/>
      <point x="255" y="-25" type="curve"/>
      <point x="255" y="206"/>
      <point x="296" y="502"/>
      <point x="360" y="668" type="curve"/>
      <point x="395" y="668"/>
      <point x="470" y="658"/>
      <point x="490" y="649" type="curve"/>
      <point x="495" y="666"/>
      <point x="495" y="691"/>
      <point x="495" y="701" type="curve" smooth="yes"/>
      <point x="495" y="763"/>
      <point x="476" y="800"/>
      <point x="381" y="800" type="curve" smooth="yes"/>
      <point x="253" y="800"/>
      <point x="186" y="758"/>
      <point x="147" y="584" type="curve" smooth="yes"/>
      <point x="95" y="354"/>
      <point x="69" y="187"/>
      <point x="69" y="15" type="curve" smooth="yes"/>
      <point x="69" y="-112"/>
      <point x="126" y="-157"/>
      <point x="229" y="-157" type="curve" smooth="yes"/>
    </contour>
  </outline>
</glyph>
<glyph name="c" format="1">
  <advance width="638"/>
  <unicode hex="0063"/>
  <outline>
    <contour>
      <point x="473" y="-25"/>
      <point x="592" y="48"/>
      <point x="592" y="141" type="curve" smooth="yes"/>
      <point x="592" y="197"/>
      <point x="549" y="227"/>
      <point x="469" y="227" type="curve"/>
      <point x="466" y="144"/>
      <point x="408" y="78"/>
      <point x="338" y="78" type="curve" smooth="yes"/>
      <point x="278" y="78"/>
      <point x="243" y="135"/>
      <point x="243" y="233" type="curve" smooth="yes"/>
      <point x="243" y="344"/>
      <point x="302" y="449"/>
      <point x="379" y="477" type="curve"/>
      <point x="406" y="420"/>
      <point x="456" y="385"/>
      <point x="513" y="385" type="curve" smooth="yes"/>
      <point x="574" y="385"/>
      <point x="617" y="426"/>
      <point x="617" y="483" type="curve" smooth="yes"/>
      <point x="617" y="554"/>
      <point x="543" y="600"/>
      <point x="429" y="600" type="curve" smooth="yes"/>
      <point x="205" y="600"/>
      <point x="45" y="448"/>
      <point x="45" y="235" type="curve" smooth="yes"/>
      <point x="45" y="72"/>
      <point x="149" y="-25"/>
      <point x="323" y="-25" type="curve" smooth="yes"/>
    </contour>
    <contour>
      <point x="412" y="575" type="move" name="top"/>
    </contour>
    <contour>
      <point x="300" y="0" type="move" name="bottom"/>
    </contour>
  </outline>
</glyph>
<glyph name="e" format="1">
  <advance width="661"/>
  <unicode hex="0065"/>
  <outline>
    <contour>
      <point x="456" y="-25"/>
      <point x="572" y="42"/>
      <point x="572" y="128" type="curve" smooth="yes"/>
      <point x="572" y="184"/>
      <point x="529" y="214"/>
      <point x="449" y="214" type="curve"/>
      <point x="446" y="132"/>
      <point x="398" y="78"/>
      <point x="330" y="78" type="curve" smooth="yes"/>
      <point x="274" y="78"/>
      <point x="241" y="132"/>
      <point x="241" y="223" type="curve" smooth="yes"/>
      <point x="241" y="359"/>
      <point x="318" y="483"/>
      <point x="403" y="483" type="curve" smooth="yes"/>
      <point x="435" y="483"/>
      <point x="457" y="463"/>
      <point x="457" y="434" type="curve" smooth="yes"/>
      <point x="457" y="360"/>
      <point x="377" y="314"/>
      <point x="235" y="306" type="curve"/>
      <point x="222" y="232" type="line"/>
      <point x="475" y="227"/>
      <point x="630" y="312"/>
      <point x="630" y="455" type="curve" smooth="yes"/>
      <point x="630" y="547"/>
      <point x="559" y="600"/>
      <point x="437" y="600" type="curve" smooth="yes"/>
      <point x="210" y="600"/>
      <point x="43" y="441"/>
      <point x="43" y="225" type="curve" smooth="yes"/>
      <point x="43" y="68"/>
      <point x="142" y="-25"/>
      <point x="308" y="-25" type="curve" smooth="yes"/>
    </contour>
    <contour>
      <point x="453" y="0" type="move" name="ogonek"/>
    </contour>
    <contour>
      <point x="318" y="0" type="move" name="bottom"/>
    </contour>
    <contour>
      <point x="420" y="575" type="move" name="top"/>
    </contour>
  </outline>
</glyph>
<glyph name="f" format="1">
  <advance width="439"/>
  <unicode hex="0066"/>
  <outline>
    <contour>
      <point x="222" y="-200"/>
      <point x="263" y="-184"/>
      <point x="312" y="-151" type="curve"/>
      <point x="292" y="-134"/>
      <point x="281" y="-102"/>
      <point x="281" y="-60" type="curve" smooth="yes"/>
      <point x="281" y="16"/>
      <point x="310" y="208"/>
      <point x="349" y="379" type="curve"/>
      <point x="274" y="590" type="line"/>
      <point x="288" y="600" type="line"/>
      <point x="311" y="585"/>
      <point x="338" y="577"/>
      <point x="367" y="577" type="curve" smooth="yes"/>
      <point x="433" y="577"/>
      <point x="479" y="619"/>
      <point x="479" y="680" type="curve" smooth="yes"/>
      <point x="479" y="741"/>
      <point x="425" y="787"/>
      <point x="353" y="787" type="curve" smooth="yes"/>
      <point x="223" y="787"/>
      <point x="151" y="693"/>
      <point x="151" y="544" type="curve" smooth="yes"/>
      <point x="151" y="513"/>
      <point x="154" y="481"/>
      <point x="160" y="446" type="curve"/>
      <point x="100" y="153"/>
      <point x="70" y="-15"/>
      <point x="70" y="-82" type="curve" smooth="yes"/>
      <point x="70" y="-157"/>
      <point x="111" y="-200"/>
      <point x="182" y="-200" type="curve" smooth="yes"/>
    </contour>
    <contour>
      <point x="131" y="341"/>
      <point x="223" y="355"/>
      <point x="310" y="355" type="curve" smooth="yes"/>
      <point x="382" y="355"/>
      <point x="422" y="390"/>
      <point x="422" y="453" type="curve" smooth="yes"/>
      <point x="422" y="466"/>
      <point x="419" y="485"/>
      <point x="415" y="498" type="curve"/>
      <point x="351" y="474"/>
      <point x="259" y="460"/>
      <point x="172" y="460" type="curve" smooth="yes"/>
      <point x="100" y="460"/>
      <point x="60" y="425"/>
      <point x="60" y="362" type="curve" smooth="yes"/>
      <point x="60" y="349"/>
      <point x="63" y="330"/>
      <point x="67" y="317" type="curve"/>
    </contour>
  </outline>
</glyph>
<glyph name="i" format="1">
  <advance width="388"/>
  <unicode hex="0069"/>
  <outline>
    <contour>
      <point x="223" y="-25"/>
      <point x="264" y="-9"/>
      <point x="302" y="24" type="curve"/>
      <point x="281" y="42"/>
      <point x="271" y="75"/>
      <point x="271" y="115" type="curve" smooth="yes"/>
      <point x="271" y="243"/>
      <point x="345" y="476"/>
      <point x="345" y="526" type="curve" smooth="yes"/>
      <point x="345" y="577"/>
      <point x="326" y="600"/>
      <point x="270" y="600" type="curve" smooth="yes"/>
      <point x="206" y="600"/>
      <point x="133" y="567"/>
      <point x="73" y="525" type="curve"/>
      <point x="129" y="441" type="line"/>
      <point x="102" y="324"/>
      <point x="65" y="158"/>
      <point x="65" y="99" type="curve" smooth="yes"/>
      <point x="65" y="19"/>
      <point x="98" y="-25"/>
      <point x="183" y="-25" type="curve" smooth="yes"/>
    </contour>
    <contour>
      <point x="314" y="655"/>
      <point x="378" y="699"/>
      <point x="378" y="764" type="curve" smooth="yes"/>
      <point x="378" y="816"/>
      <point x="333" y="847"/>
      <point x="272" y="847" type="curve" smooth="yes"/>
      <point x="215" y="847"/>
      <point x="137" y="811"/>
      <point x="137" y="738" type="curve" smooth="yes"/>
      <point x="137" y="686"/>
      <point x="182" y="655"/>
      <point x="243" y="655" type="curve" smooth="yes"/>
    </contour>
    <contour>
      <point x="302" y="24" type="move" name="ogonek"/>
    </contour>
    <contour>
      <point x="175" y="0" type="move" name="bottom"/>
    </contour>
  </outline>
</glyph>
<glyph name="k" format="1">
  <advance width="729"/>
  <unicode hex="006B"/>
  <outline>
    <contour>
      <point x="221" y="-25"/>
      <point x="270" y="-9"/>
      <point x="307" y="24" type="curve"/>
      <point x="289" y="46"/>
      <point x="276" y="65"/>
      <point x="276" y="132" type="curve" smooth="yes"/>
      <point x="276" y="357"/>
      <point x="365" y="605"/>
      <point x="365" y="704" type="curve" smooth="yes"/>
      <point x="365" y="754"/>
      <point x="343" y="775"/>
      <point x="280" y="775" type="curve" smooth="yes"/>
      <point x="219" y="775"/>
      <point x="149" y="743"/>
      <point x="93" y="702" type="curve"/>
      <point x="149" y="622" type="line"/>
      <point x="123" y="472"/>
      <point x="70" y="195"/>
      <point x="70" y="119" type="curve" smooth="yes"/>
      <point x="70" y="22"/>
      <point x="102" y="-25"/>
      <point x="183" y="-25" type="curve" smooth="yes"/>
    </contour>
    <contour>
      <point x="639" y="-25"/>
      <point x="689" y="6"/>
      <point x="728" y="69" type="curve"/>
      <point x="653" y="99"/>
      <point x="613" y="154"/>
      <point x="587" y="210" type="curve" smooth="yes"/>
      <point x="505" y="361" type="line"/>
      <point x="332" y="257" type="line"/>
      <point x="407" y="118" type="line" smooth="yes"/>
      <point x="461" y="19"/>
      <point x="503" y="-25"/>
      <point x="575" y="-25" type="curve" smooth="yes"/>
    </contour>
    <contour>
      <point x="484" y="277" type="line" smooth="yes"/>
      <point x="640" y="358"/>
      <point x="705" y="425"/>
      <point x="705" y="504" type="curve" smooth="yes"/>
      <point x="705" y="562"/>
      <point x="664" y="600"/>
      <point x="603" y="600" type="curve" smooth="yes"/>
      <point x="564" y="600"/>
      <point x="523" y="589"/>
      <point x="478" y="567" type="curve"/>
      <point x="485" y="550"/>
      <point x="488" y="534"/>
      <point x="488" y="519" type="curve" smooth="yes"/>
      <point x="488" y="446"/>
      <point x="417" y="389"/>
      <point x="315" y="307" type="curve" smooth="yes"/>
      <point x="234" y="241" type="line"/>
      <point x="228" y="144" type="line"/>
    </contour>
    <contour>
      <point x="443" y="575" type="move" name="top"/>
    </contour>
    <contour>
      <point x="342" y="0" type="move" name="bottom"/>
    </contour>
  </outline>
</glyph>
<glyph name="l" format="1">
  <advance width="385"/>
  <unicode hex="006C"/>
  <outline>
    <contour>
      <point x="221" y="-25"/>
      <point x="270" y="-9"/>
      <point x="307" y="24" type="curve"/>
      <point x="289" y="46"/>
      <point x="276" y="65"/>
      <point x="276" y="132" type="curve" smooth="yes"/>
      <point x="276" y="357"/>
      <point x="365" y="605"/>
      <point x="365" y="704" type="curve" smooth="yes"/>
      <point x="365" y="754"/>
      <point x="343" y="775"/>
      <point x="280" y="775" type="curve" smooth="yes"/>
      <point x="219" y="775"/>
      <point x="149" y="743"/>
      <point x="93" y="702" type="curve"/>
      <point x="149" y="622" type="line"/>
      <point x="123" y="472"/>
      <point x="70" y="195"/>
      <point x="70" y="119" type="curve" smooth="yes"/>
      <point x="70" y="22"/>
      <point x="102" y="-25"/>
      <point x="183" y="-25" type="curve" smooth="yes"/>
    </contour>
    <contour>
      <point x="165" y="0" type="move" name="bottom"/>
    </contour>
    <contour>
      <point x="260" y="725" type="move" name="top"/>
    </contour>
    <contour>
      <point x="345" y="575" type="move" name="topright"/>
    </contour>
    <contour>
      <point x="205" y="377" type="move" name="center"/>
    </contour>
  </outline>
</glyph>
<glyph name="s" format="1">
  <advance width="645"/>
  <unicode hex="0073"/>
  <outline>
    <contour>
      <point x="399" y="-25"/>
      <point x="574" y="26"/>
      <point x="574" y="170" type="curve" smooth="yes"/>
      <point x="574" y="369"/>
      <point x="265" y="332"/>
      <point x="265" y="417" type="curve" smooth="yes"/>
      <point x="265" y="457"/>
      <point x="315" y="482"/>
      <point x="367" y="487" type="curve"/>
      <point x="396" y="417"/>
      <point x="449" y="385"/>
      <point x="502" y="385" type="curve" smooth="yes"/>
      <point x="559" y="385"/>
      <point x="611" y="420"/>
      <point x="611" y="482" type="curve" smooth="yes"/>
      <point x="611" y="551"/>
      <point x="527" y="600"/>
      <point x="384" y="600" type="curve" smooth="yes"/>
      <point x="217" y="600"/>
      <point x="64" y="542"/>
      <point x="64" y="393" type="curve" smooth="yes"/>
      <point x="64" y="205"/>
      <point x="373" y="228"/>
      <point x="373" y="157" type="curve" smooth="yes"/>
      <point x="373" y="114"/>
      <point x="303" y="97"/>
      <point x="270" y="97" type="curve" smooth="yes"/>
      <point x="182" y="97"/>
      <point x="124" y="138"/>
      <point x="89" y="201" type="curve"/>
      <point x="52" y="173"/>
      <point x="32" y="132"/>
      <point x="32" y="99" type="curve" smooth="yes"/>
      <point x="32" y="29"/>
      <point x="96" y="-25"/>
      <point x="281" y="-25" type="curve" smooth="yes"/>
    </contour>
    <contour>
      <point x="370" y="575" type="move" name="top"/>
    </contour>
    <contour>
      <point x="278" y="0" type="move" name="bottom"/>
    </contour>
  </outline>
</glyph>
<glyph name="t" format="1">
  <advance width="464"/>
  <unicode hex="0074"/>
  <outline>
    <contour>
      <point x="264" y="-25"/>
      <point x="319" y="-4"/>
      <point x="364" y="38" type="curve"/>
      <point x="308" y="132" type="line"/>
      <point x="314" y="355"/>
      <point x="408" y="554"/>
      <point x="408" y="621" type="curve" smooth="yes"/>
      <point x="408" y="675"/>
      <point x="388" y="698"/>
      <point x="332" y="698" type="curve" smooth="yes"/>
      <point x="264" y="698"/>
      <point x="200" y="666"/>
      <point x="153" y="625" type="curve"/>
      <point x="172" y="579"/>
      <point x="177" y="539"/>
      <point x="177" y="508" type="curve" smooth="yes"/>
      <point x="177" y="442"/>
      <point x="101" y="227"/>
      <point x="101" y="102" type="curve" smooth="yes"/>
      <point x="101" y="-4"/>
      <point x="154" y="-25"/>
      <point x="216" y="-25" type="curve" smooth="yes"/>
    </contour>
    <contour>
      <point x="217" y="424"/>
      <point x="295" y="445"/>
      <point x="379" y="445" type="curve" smooth="yes"/>
      <point x="412" y="445"/>
      <point x="446" y="440"/>
      <point x="473" y="431" type="curve"/>
      <point x="483" y="456"/>
      <point x="489" y="480"/>
      <point x="489" y="499" type="curve" smooth="yes"/>
      <point x="489" y="541"/>
      <point x="474" y="553"/>
      <point x="420" y="553" type="curve" smooth="yes"/>
      <point x="341" y="553"/>
      <point x="263" y="532"/>
      <point x="179" y="532" type="curve" smooth="yes"/>
      <point x="146" y="532"/>
      <point x="112" y="537"/>
      <point x="85" y="545" type="curve"/>
      <point x="75" y="521"/>
      <point x="69" y="497"/>
      <point x="69" y="477" type="curve" smooth="yes"/>
      <point x="69" y="436"/>
      <point x="84" y="424"/>
      <point x="138" y="424" type="curve" smooth="yes"/>
    </contour>
    <contour>
      <point x="232" y="257" type="move" name="center"/>
    </contour>
    <contour>
      <point x="232" y="575" type="move" name="top"/>
    </contour>
    <contour>
      <point x="464" y="575" type="move" name="topright"/>
    </contour>
    <contour>
      <point x="279" y="488" type="move" name="_center"/>
    </contour>
    <contour>
      <point x="202" y="0" type="move" name="bottom"/>
    </contour>
  </outline>
</glyph>
<glyph name="u" format="1">
  <advance width="764"/>
  <unicode hex="0075"/>
  <outline>
    <contour>
      <point x="308" y="-25"/>
      <point x="382" y="15"/>
      <point x="435" y="78" type="curve"/>
      <point x="490" y="51" type="line"/>
      <point x="475" y="210" type="line"/>
      <point x="442" y="143"/>
      <point x="380" y="97"/>
      <point x="324" y="97" type="curve" smooth="yes"/>
      <point x="277" y="97"/>
      <point x="257" y="120"/>
      <point x="257" y="172" type="curve" smooth="yes"/>
      <point x="257" y="237"/>
      <point x="318" y="459"/>
      <point x="318" y="529" type="curve" smooth="yes"/>
      <point x="318" y="579"/>
      <point x="295" y="600"/>
      <point x="240" y="600" type="curve" smooth="yes"/>
      <point x="204" y="600"/>
      <point x="138" y="580"/>
      <point x="83" y="551" type="curve"/>
      <point x="96" y="533"/>
      <point x="104" y="499"/>
      <point x="104" y="460" type="curve" smooth="yes"/>
      <point x="104" y="375"/>
      <point x="60" y="242"/>
      <point x="60" y="137" type="curve" smooth="yes"/>
      <point x="60" y="27"/>
      <point x="111" y="-25"/>
      <point x="218" y="-25" type="curve" smooth="yes"/>
    </contour>
    <contour>
      <point x="603" y="-25"/>
      <point x="644" y="-8"/>
      <point x="681" y="24" type="curve"/>
      <point x="661" y="41"/>
      <point x="650" y="73"/>
      <point x="650" y="115" type="curve" smooth="yes"/>
      <point x="650" y="243"/>
      <point x="724" y="476"/>
      <point x="724" y="526" type="curve" smooth="yes"/>
      <point x="724" y="579"/>
      <point x="703" y="600"/>
      <point x="649" y="600" type="curve" smooth="yes"/>
      <point x="598" y="600"/>
      <point x="544" y="580"/>
      <point x="452" y="525" type="curve"/>
      <point x="508" y="441" type="line"/>
      <point x="466" y="260"/>
      <point x="444" y="143"/>
      <point x="444" y="99" type="curve" smooth="yes"/>
      <point x="444" y="14"/>
      <point x="481" y="-25"/>
      <point x="562" y="-25" type="curve" smooth="yes"/>
    </contour>
    <contour>
      <point x="681" y="24" type="move" name="ogonek"/>
    </contour>
    <contour>
      <point x="433" y="575" type="move" name="top"/>
    </contour>
    <contour>
      <point x="649" y="600" type="move" name="topright"/>
    </contour>
    <contour>
      <point x="331" y="0" type="move" name="bottom"/>
    </contour>
  </outline>
</glyph>
<glyph name="v" format="1">
  <advance width="703"/>
  <unicode hex="0076"/>
  <outline>
    <contour>
      <point x="95" y="37"/>
      <point x="149" y="-25"/>
      <point x="282" y="-25" type="curve" smooth="yes"/>
      <point x="365" y="-25"/>
      <point x="469" y="14"/>
      <point x="530" y="69" type="curve"/>
      <point x="507" y="122" type="line"/>
      <point x="647" y="385"/>
      <point x="678" y="455"/>
      <point x="678" y="516" type="curve" smooth="yes"/>
      <point x="678" y="572"/>
      <point x="648" y="600"/>
      <point x="590" y="600" type="curve" smooth="yes"/>
      <point x="545" y="600"/>
      <point x="489" y="582"/>
      <point x="456" y="557" type="curve"/>
      <point x="469" y="532"/>
      <point x="475" y="509"/>
      <point x="475" y="482" type="curve" smooth="yes"/>
      <point x="475" y="421"/>
      <point x="418" y="276"/>
      <point x="299" y="97" type="curve"/>
      <point x="289" y="97" type="line"/>
      <point x="292" y="161"/>
      <point x="294" y="271"/>
      <point x="294" y="354" type="curve" smooth="yes"/>
      <point x="294" y="545"/>
      <point x="243" y="600"/>
      <point x="159" y="600" type="curve" smooth="yes"/>
      <point x="116" y="600"/>
      <point x="77" y="586"/>
      <point x="40" y="557" type="curve"/>
      <point x="108" y="487"/>
      <point x="95" y="355"/>
      <point x="95" y="190" type="curve" smooth="yes"/>
    </contour>
  </outline>
</glyph>
<glyph name="w" format="1">
  <advance width="956"/>
  <unicode hex="0077"/>
  <outline>
    <contour>
      <point x="95" y="37"/>
      <point x="137" y="-25"/>
      <point x="242" y="-25" type="curve" smooth="yes"/>
      <point x="357" y="-25"/>
      <point x="414" y="52"/>
      <point x="474" y="143" type="curve" smooth="yes"/>
      <point x="531" y="237"/>
      <point x="588" y="383"/>
      <point x="588" y="476" type="curve" smooth="yes"/>
      <point x="588" y="539"/>
      <point x="558" y="570"/>
      <point x="500" y="570" type="curve" smooth="yes"/>
      <point x="478" y="570"/>
      <point x="452" y="552"/>
      <point x="436" y="527" type="curve"/>
      <point x="447" y="494"/>
      <point x="452" y="464"/>
      <point x="452" y="429" type="curve" smooth="yes"/>
      <point x="452" y="372"/>
      <point x="416" y="212"/>
      <point x="302" y="97" type="curve"/>
      <point x="292" y="97" type="line"/>
      <point x="292" y="161"/>
      <point x="294" y="271"/>
      <point x="294" y="354" type="curve" smooth="yes"/>
      <point x="294" y="545"/>
      <point x="243" y="600"/>
      <point x="159" y="600" type="curve" smooth="yes"/>
      <point x="116" y="600"/>
      <point x="77" y="586"/>
      <point x="40" y="557" type="curve"/>
      <point x="108" y="487"/>
      <point x="95" y="355"/>
      <point x="95" y="190" type="curve" smooth="yes"/>
    </contour>
    <contour>
      <point x="451" y="37"/>
      <point x="484" y="-25"/>
      <point x="595" y="-25" type="curve" smooth="yes"/>
      <point x="665" y="-25"/>
      <point x="752" y="14"/>
      <point x="803" y="69" type="curve"/>
      <point x="780" y="122" type="line"/>
      <point x="904" y="385"/>
      <point x="931" y="455"/>
      <point x="931" y="516" type="curve" smooth="yes"/>
      <point x="931" y="572"/>
      <point x="901" y="600"/>
      <point x="843" y="600" type="curve" smooth="yes"/>
      <point x="798" y="600"/>
      <point x="742" y="582"/>
      <point x="709" y="557" type="curve"/>
      <point x="722" y="532"/>
      <point x="728" y="509"/>
      <point x="728" y="482" type="curve" smooth="yes"/>
      <point x="728" y="421"/>
      <point x="677" y="276"/>
      <point x="572" y="97" type="curve"/>
      <point x="562" y="97" type="line"/>
      <point x="538" y="512" type="line"/>
      <point x="500" y="570" type="line"/>
      <point x="482" y="570"/>
      <point x="447" y="564"/>
      <point x="407" y="535" type="curve"/>
      <point x="438" y="190" type="line" smooth="yes"/>
    </contour>
    <contour>
      <point x="529" y="575" type="move" name="top"/>
    </contour>
    <contour>
      <point x="427" y="0" type="move" name="bottom"/>
    </contour>
  </outline>
</glyph>
<glyph name="y" format="1">
  <advance width="714"/>
  <unicode hex="0079"/>
  <outline>
    <contour>
      <point x="471" y="-200"/>
      <point x="689" y="296"/>
      <point x="689" y="512" type="curve" smooth="yes"/>
      <point x="689" y="570"/>
      <point x="656" y="600"/>
      <point x="592" y="600" type="curve" smooth="yes"/>
      <point x="555" y="600"/>
      <point x="508" y="582"/>
      <point x="481" y="557" type="curve"/>
      <point x="484" y="539"/>
      <point x="486" y="518"/>
      <point x="486" y="499" type="curve" smooth="yes"/>
      <point x="486" y="151"/>
      <point x="255" y="-51"/>
      <point x="112" y="-51" type="curve" smooth="yes"/>
      <point x="44" y="-51"/>
      <point x="5" y="-21"/>
      <point x="-15" y="13" type="curve"/>
      <point x="-39" y="-4"/>
      <point x="-64" y="-43"/>
      <point x="-64" y="-83" type="curve" smooth="yes"/>
      <point x="-64" y="-158"/>
      <point x="-4" y="-200"/>
      <point x="110" y="-200" type="curve" smooth="yes"/>
    </contour>
    <contour>
      <point x="390" y="54" type="line"/>
      <point x="183" y="54"/>
      <point x="424" y="600"/>
      <point x="161" y="600" type="curve" smooth="yes"/>
      <point x="118" y="600"/>
      <point x="78" y="586"/>
      <point x="42" y="557" type="curve"/>
      <point x="179" y="431"/>
      <point x="-24" y="-25"/>
      <point x="284" y="-25" type="curve"/>
    </contour>
    <contour>
      <point x="403" y="575" type="move" name="top"/>
    </contour>
    <contour>
      <point x="280" y="-200" type="move" name="bottom"/>
    </contour>
  </outline>
</glyph>
<glyph name="z" format="1">
  <advance width="614"/>
  <unicode hex="007A"/>
  <outline>
    <contour>
      <point x="562" y="453" type="line"/>
      <point x="329" y="428" type="line"/>
      <point x="73" y="128" type="line"/>
      <point x="263" y="90" type="line"/>
    </contour>
    <contour>
      <point x="507" y="-25"/>
      <point x="579" y="26"/>
      <point x="579" y="97" type="curve" smooth="yes"/>
      <point x="579" y="133"/>
      <point x="570" y="165"/>
      <point x="558" y="196" type="curve"/>
      <point x="422" y="143" type="line"/>
      <point x="351" y="143"/>
      <point x="215" y="203"/>
      <point x="151" y="203" type="curve"/>
      <point x="55" y="202"/>
      <point x="10" y="138"/>
      <point x="10" y="78" type="curve" smooth="yes"/>
      <point x="10" y="28"/>
      <point x="42" y="-18"/>
      <point x="104" y="-18" type="curve" smooth="yes"/>
      <point x="143" y="-18"/>
      <point x="175" y="-6"/>
      <point x="215" y="25" type="curve"/>
      <point x="285" y="-2"/>
      <point x="346" y="-25"/>
      <point x="422" y="-25" type="curve" smooth="yes"/>
    </contour>
    <contour>
      <point x="462" y="375"/>
      <point x="599" y="394"/>
      <point x="599" y="506" type="curve" smooth="yes"/>
      <point x="599" y="560"/>
      <point x="565" y="600"/>
      <point x="494" y="600" type="curve" smooth="yes"/>
      <point x="445" y="600"/>
      <point x="400" y="570"/>
      <point x="379" y="530" type="curve"/>
      <point x="312" y="533"/>
      <point x="175" y="568"/>
      <point x="86" y="605" type="curve"/>
      <point x="79" y="564"/>
      <point x="75" y="539"/>
      <point x="75" y="514" type="curve" smooth="yes"/>
      <point x="75" y="423"/>
      <point x="126" y="377"/>
      <point x="322" y="375" type="curve"/>
    </contour>
    <contour>
      <point x="367" y="575" type="move" name="top"/>
    </contour>
    <contour>
      <point x="266" y="0" type="move" name="bottom"/>
    </contour>
  </outline>
</glyph>
<glyph name="asciitilde" format="1">
  <advance width="724"/>
  <unicode hex="007E"/>
  <outline>
    <contour>
      <point x="633" y="360"/>
      <point x="642" y="394"/>
      <point x="642" y="419" type="curve" smooth="yes"/>
      <point x="642" y="459"/>
      <point x="627" y="484"/>
      <point x="571" y="484" type="curve" smooth="yes"/>
      <point x="456" y="484"/>
      <point x="312" y="424"/>
      <point x="137" y="424" type="curve"/>
      <point x="118" y="385"/>
      <point x="109" y="351"/>
      <point x="109" y="326" type="curve" smooth="yes"/>
      <point x="109" y="286"/>
      <point x="124" y="261"/>
      <point x="180" y="261" type="curve" smooth="yes"/>
      <point x="295" y="261"/>
      <point x="439" y="321"/>
      <point x="614" y="321" type="curve"/>
    </contour>
  </outline>
</glyph>
<glyph name="sterling" format="1">
  <advance width="659"/>
  <unicode hex="00A3"/>
  <outline>
    <contour>
      <point x="296" y="74" type="line"/>
      <point x="374" y="509" type="line"/>
      <point x="465" y="509"/>
      <point x="552" y="491"/>
      <point x="602" y="462" type="curve"/>
      <point x="624" y="489"/>
      <point x="639" y="534"/>
      <point x="639" y="574" type="curve" smooth="yes"/>
      <point x="639" y="660"/>
      <point x="559" y="705"/>
      <point x="407" y="705" type="curve" smooth="yes"/>
      <point x="264" y="705"/>
      <point x="162" y="633"/>
      <point x="146" y="472" type="curve" smooth="yes"/>
      <point x="108" y="78" type="line"/>
    </contour>
    <contour>
      <point x="538" y="-30"/>
      <point x="613" y="27"/>
      <point x="613" y="100" type="curve" smooth="yes"/>
      <point x="613" y="132"/>
      <point x="606" y="162"/>
      <point x="589" y="204" type="curve"/>
      <point x="442" y="141" type="line"/>
      <point x="371" y="141"/>
      <point x="265" y="212"/>
      <point x="170" y="212" type="curve" smooth="yes"/>
      <point x="79" y="212"/>
      <point x="14" y="156"/>
      <point x="14" y="78" type="curve" smooth="yes"/>
      <point x="14" y="20"/>
      <point x="54" y="-22"/>
      <point x="111" y="-22" type="curve" smooth="yes"/>
      <point x="155" y="-22"/>
      <point x="190" y="-8"/>
      <point x="234" y="28" type="curve"/>
      <point x="305" y="-3"/>
      <point x="366" y="-30"/>
      <point x="442" y="-30" type="curve" smooth="yes"/>
    </contour>
    <component base="uni0335" xOffset="-54" yOffset="53" xScale="0.9" yScale="0.8"/>
  </outline>
</glyph>
<glyph name="paragraph" format="1">
  <advance width="674"/>
  <unicode hex="00B6"/>
  <outline>
    <contour>
      <point x="461" y="-93"/>
      <point x="514" y="-77"/>
      <point x="561" y="-46" type="curve"/>
      <point x="541" y="-29"/>
      <point x="531" y="2"/>
      <point x="531" y="40" type="curve" smooth="yes"/>
      <point x="531" y="213"/>
      <point x="615" y="401"/>
      <point x="615" y="506" type="curve" smooth="yes"/>
      <point x="615" y="693"/>
      <point x="469" y="734"/>
      <point x="367" y="734" type="curve" smooth="yes"/>
      <point x="163" y="734"/>
      <point x="60" y="587"/>
      <point x="60" y="460" type="curve" smooth="yes"/>
      <point x="60" y="366"/>
      <point x="115" y="283"/>
      <point x="224" y="283" type="curve" smooth="yes"/>
      <point x="293" y="283"/>
      <point x="356" y="323"/>
      <point x="402" y="404" type="curve"/>
      <point x="422" y="404" type="line"/>
      <point x="389" y="357"/>
      <point x="296" y="189"/>
      <point x="296" y="55" type="curve" smooth="yes"/>
      <point x="296" y="-31"/>
      <point x="330" y="-93"/>
      <point x="420" y="-93" type="curve" smooth="yes"/>
    </contour>
  </outline>
</glyph>
<glyph name="periodcentered" format="1">
  <advance width="333"/>
  <unicode hex="00B7"/>
  <outline>
    <component base="period" yOffset="205"/>
    <contour>
      <point x="148" y="294" type="move" name="_center"/>
    </contour>
  </outline>
</glyph>
<glyph name="multiply" format="1">
  <advance width="690"/>
  <unicode hex="00D7"/>
  <outline>
    <contour>
      <point x="578" y="458" type="line" smooth="yes"/>
      <point x="614" y="490"/>
      <point x="627" y="512"/>
      <point x="627" y="530" type="curve" smooth="yes"/>
      <point x="627" y="559"/>
      <point x="573" y="596"/>
      <point x="522" y="616" type="curve"/>
      <point x="138" y="276" type="line" smooth="yes"/>
      <point x="102" y="244"/>
      <point x="89" y="222"/>
      <point x="89" y="204" type="curve" smooth="yes"/>
      <point x="89" y="175"/>
      <point x="143" y="137"/>
      <point x="194" y="117" type="curve"/>
    </contour>
    <contour>
      <point x="514" y="140"/>
      <point x="577" y="181"/>
      <point x="577" y="216" type="curve" smooth="yes"/>
      <point x="577" y="234"/>
      <point x="563" y="252"/>
      <point x="538" y="281" type="curve" smooth="yes"/>
      <point x="243" y="616" type="line"/>
      <point x="199" y="595"/>
      <point x="138" y="555"/>
      <point x="138" y="517" type="curve" smooth="yes"/>
      <point x="138" y="499"/>
      <point x="151" y="481"/>
      <point x="176" y="452" type="curve" smooth="yes"/>
      <point x="471" y="117" type="line"/>
    </contour>
  </outline>
</glyph>
<glyph name="eth" format="1">
  <advance width="718"/>
  <unicode hex="00F0"/>
  <outline>
    <contour>
      <point x="539" y="-25"/>
      <point x="680" y="122"/>
      <point x="680" y="337" type="curve" smooth="yes"/>
      <point x="680" y="587"/>
      <point x="490" y="827"/>
      <point x="291" y="827" type="curve" smooth="yes"/>
      <point x="212" y="827"/>
      <point x="163" y="781"/>
      <point x="163" y="706" type="curve"/>
      <point x="360" y="706"/>
      <point x="517" y="510"/>
      <point x="517" y="291" type="curve" smooth="yes"/>
      <point x="517" y="167"/>
      <point x="450" y="78"/>
      <point x="357" y="78" type="curve" smooth="yes"/>
      <point x="283" y="78"/>
      <point x="244" y="132"/>
      <point x="244" y="236" type="curve" smooth="yes"/>
      <point x="244" y="395"/>
      <point x="354" y="509"/>
      <point x="506" y="509" type="curve"/>
      <point x="507" y="544"/>
      <point x="504" y="573"/>
      <point x="497" y="592" type="curve"/>
      <point x="475" y="598"/>
      <point x="455" y="600"/>
      <point x="426" y="600" type="curve" smooth="yes"/>
      <point x="204" y="600"/>
      <point x="46" y="452"/>
      <point x="46" y="245" type="curve" smooth="yes"/>
      <point x="46" y="80"/>
      <point x="158" y="-25"/>
      <point x="333" y="-25" type="curve" smooth="yes"/>
    </contour>
    <component base="uni0335.Rhalf" xOffset="583" yOffset="327" xScale="0.94" yScale="0.94" xyScale="0.342" yxScale="-0.342"/>
  </outline>
</glyph>
<glyph name="OE" format="1">
  <advance width="1161"/>
  <unicode hex="0152"/>
  <outline>
    <contour>
      <point x="1056" y="493"/>
      <point x="1128" y="555"/>
      <point x="1128" y="656" type="curve" smooth="yes"/>
      <point x="1128" y="676"/>
      <point x="1125" y="698"/>
      <point x="1120" y="721" type="curve"/>
      <point x="1047" y="696"/>
      <point x="960" y="678"/>
      <point x="853" y="678" type="curve" smooth="yes"/>
      <point x="677" y="678"/>
      <point x="629" y="726"/>
      <point x="434" y="726" type="curve"/>
      <point x="349" y="548" type="line"/>
      <point x="576" y="710"/>
      <point x="696" y="493"/>
      <point x="937" y="493" type="curve" smooth="yes"/>
    </contour>
    <contour>
      <point x="1002" y="-25"/>
      <point x="1076" y="24"/>
      <point x="1076" y="111" type="curve" smooth="yes"/>
      <point x="1076" y="137"/>
      <point x="1073" y="156"/>
      <point x="1065" y="175" type="curve"/>
      <point x="1017" y="156"/>
      <point x="966" y="143"/>
      <point x="917" y="136" type="curve"/>
      <point x="580" y="136" type="line"/>
      <point x="539" y="51" type="line"/>
      <point x="646" y="-8"/>
      <point x="764" y="-25"/>
      <point x="858" y="-25" type="curve" smooth="yes"/>
    </contour>
    <contour>
      <point x="914" y="249"/>
      <point x="955" y="284"/>
      <point x="955" y="341" type="curve" smooth="yes"/>
      <point x="955" y="360"/>
      <point x="953" y="377"/>
      <point x="950" y="389" type="curve"/>
      <point x="860" y="366" type="line"/>
      <point x="818" y="366"/>
      <point x="782" y="369"/>
      <point x="741" y="376" type="curve"/>
      <point x="721" y="262" type="line"/>
      <point x="780" y="252"/>
      <point x="812" y="249"/>
      <point x="846" y="249" type="curve" smooth="yes"/>
    </contour>
    <component base="O.alt"/>
    <contour>
      <point x="638" y="710" type="move" name="top"/>
    </contour>
    <contour>
      <point x="525" y="0" type="move" name="bottom"/>
    </contour>
  </outline>
</glyph>
<glyph name="oe" format="1">
  <advance width="1137"/>
  <unicode hex="0153"/>
  <outline>
    <contour>
      <point x="523" y="-25"/>
      <point x="680" y="135"/>
      <point x="680" y="337" type="curve" smooth="yes"/>
      <point x="680" y="442"/>
      <point x="631" y="514"/>
      <point x="559" y="514" type="curve" smooth="yes"/>
      <point x="515" y="514"/>
      <point x="475" y="493"/>
      <point x="451" y="458" type="curve"/>
      <point x="498" y="410"/>
      <point x="517" y="359"/>
      <point x="517" y="281" type="curve" smooth="yes"/>
      <point x="517" y="163"/>
      <point x="450" y="78"/>
      <point x="357" y="78" type="curve" smooth="yes"/>
      <point x="283" y="78"/>
      <point x="244" y="132"/>
      <point x="244" y="236" type="curve" smooth="yes"/>
      <point x="244" y="395"/>
      <point x="354" y="509"/>
      <point x="506" y="509" type="curve"/>
      <point x="507" y="542"/>
      <point x="504" y="572"/>
      <point x="497" y="592" type="curve"/>
      <point x="473" y="598"/>
      <point x="452" y="600"/>
      <point x="426" y="600" type="curve" smooth="yes"/>
      <point x="204" y="600"/>
      <point x="46" y="452"/>
      <point x="46" y="245" type="curve" smooth="yes"/>
      <point x="46" y="80"/>
      <point x="154" y="-25"/>
      <point x="323" y="-25" type="curve" smooth="yes"/>
    </contour>
    <component base="e" xOffset="476"/>
    <contour>
      <point x="605" y="575" type="move" name="top"/>
    </contour>
    <contour>
      <point x="513" y="0" type="move" name="bottom"/>
    </contour>
  </outline>
</glyph>
<glyph name="florin" format="1">
  <advance width="543"/>
  <unicode hex="0192"/>
  <outline>
    <contour>
      <point x="279" y="-210"/>
      <point x="334" y="-96"/>
      <point x="347" y="36" type="curve" smooth="yes"/>
      <point x="374" y="310" type="line"/>
      <point x="257" y="528" type="line"/>
      <point x="353" y="528"/>
      <point x="455" y="503"/>
      <point x="512" y="477" type="curve"/>
      <point x="531" y="519"/>
      <point x="537" y="548"/>
      <point x="537" y="573" type="curve" smooth="yes"/>
      <point x="537" y="654"/>
      <point x="475" y="700"/>
      <point x="349" y="700" type="curve" smooth="yes"/>
      <point x="144" y="700"/>
      <point x="112" y="459"/>
      <point x="112" y="289" type="curve" smooth="yes"/>
      <point x="112" y="26"/>
      <point x="61" y="-93"/>
      <point x="6" y="-172" type="curve"/>
      <point x="34" y="-197"/>
      <point x="75" y="-210"/>
      <point x="125" y="-210" type="curve" smooth="yes"/>
    </contour>
    <component base="uni0335" xOffset="-61" yOffset="-35" xScale="0.897" yScale="0.797" xyScale="0.078" yxScale="-0.07"/>
  </outline>
</glyph>
<glyph name="uni0237" format="1">
  <advance width="397"/>
  <unicode hex="0237"/>
  <outline>
    <contour>
      <point x="165" y="-210"/>
      <point x="230" y="-87"/>
      <point x="255" y="37" type="curve" smooth="yes"/>
      <point x="290" y="210"/>
      <point x="337" y="465"/>
      <point x="337" y="526" type="curve" smooth="yes"/>
      <point x="337" y="577"/>
      <point x="318" y="600"/>
      <point x="262" y="600" type="curve" smooth="yes"/>
      <point x="198" y="600"/>
      <point x="125" y="567"/>
      <point x="65" y="525" type="curve"/>
      <point x="121" y="441" type="line"/>
      <point x="99" y="316"/>
      <point x="67" y="134"/>
      <point x="67" y="105" type="curve" smooth="yes"/>
      <point x="67" y="50"/>
      <point x="77" y="18"/>
      <point x="134" y="-34" type="curve"/>
      <point x="124" y="-48" type="line"/>
      <point x="102" y="-33"/>
      <point x="76" y="-15"/>
      <point x="38" y="-15" type="curve" smooth="yes"/>
      <point x="-29" y="-15"/>
      <point x="-73" y="-52"/>
      <point x="-73" y="-113" type="curve" smooth="yes"/>
      <point x="-73" y="-165"/>
      <point x="-37" y="-210"/>
      <point x="46" y="-210" type="curve" smooth="yes"/>
    </contour>
    <contour>
      <point x="245" y="575" type="move" name="top"/>
    </contour>
    <contour>
      <point x="153" y="0" type="move" name="bottom"/>
    </contour>
  </outline>
</glyph>
<glyph name="gravecomb" format="1">
  <advance width="376"/>
  <unicode hex="0300"/>
  <outline>
    <contour>
      <point x="332" y="653"/>
      <point x="353" y="681"/>
      <point x="356" y="729" type="curve"/>
      <point x="251" y="758"/>
      <point x="171" y="876"/>
      <point x="86" y="876" type="curve" smooth="yes"/>
      <point x="43" y="876"/>
      <point x="20" y="846"/>
      <point x="20" y="791" type="curve" smooth="yes"/>
      <point x="20" y="768"/>
      <point x="24" y="742"/>
      <point x="30" y="718" type="curve"/>
      <point x="166" y="718"/>
      <point x="231" y="653"/>
      <point x="300" y="653" type="curve" smooth="yes"/>
    </contour>
    <contour>
      <point x="188" y="886" type="move" name="top"/>
    </contour>
    <contour>
      <point x="188" y="575" type="move" name="_top"/>
    </contour>
  </outline>
</glyph>
<glyph name="acutecomb" format="1">
  <advance width="476"/>
  <unicode hex="0301"/>
  <outline>
    <contour>
      <point x="195" y="653"/>
      <point x="260" y="718"/>
      <point x="396" y="718" type="curve"/>
      <point x="402" y="742"/>
      <point x="406" y="768"/>
      <point x="406" y="791" type="curve" smooth="yes"/>
      <point x="406" y="846"/>
      <point x="383" y="876"/>
      <point x="340" y="876" type="curve" smooth="yes"/>
      <point x="255" y="876"/>
      <point x="175" y="758"/>
      <point x="70" y="729" type="curve"/>
      <point x="73" y="681"/>
      <point x="94" y="653"/>
      <point x="126" y="653" type="curve" smooth="yes"/>
    </contour>
    <contour>
      <point x="259" y="886" type="move" name="top"/>
    </contour>
    <contour>
      <point x="204" y="575" type="move" name="_top"/>
    </contour>
  </outline>
</glyph>
<glyph name="uni0302" format="1">
  <advance width="439"/>
  <unicode hex="0302"/>
  <outline>
    <contour>
      <point x="144" y="815"/>
      <point x="86" y="746"/>
      <point x="86" y="703" type="curve" smooth="yes"/>
      <point x="86" y="680"/>
      <point x="103" y="664"/>
      <point x="153" y="664" type="curve" smooth="yes"/>
      <point x="191" y="664"/>
      <point x="223" y="672"/>
      <point x="249" y="682" type="curve"/>
      <point x="249" y="737"/>
      <point x="262" y="787"/>
      <point x="298" y="826" type="curve"/>
      <point x="318" y="826" type="line"/>
      <point x="313" y="795"/>
      <point x="307" y="762"/>
      <point x="307" y="739" type="curve" smooth="yes"/>
      <point x="307" y="682"/>
      <point x="340" y="664"/>
      <point x="388" y="664" type="curve" smooth="yes"/>
      <point x="421" y="664"/>
      <point x="457" y="673"/>
      <point x="482" y="683" type="curve"/>
      <point x="465" y="695"/>
      <point x="451" y="714"/>
      <point x="451" y="748" type="curve" smooth="yes"/>
      <point x="451" y="811" type="line" smooth="yes"/>
      <point x="451" y="866"/>
      <point x="397" y="888"/>
      <point x="331" y="888" type="curve" smooth="yes"/>
      <point x="276" y="888"/>
      <point x="217" y="873"/>
      <point x="184" y="851" type="curve"/>
    </contour>
    <contour>
      <point x="321" y="868" type="move" name="top"/>
    </contour>
    <contour>
      <point x="269" y="575" type="move" name="_top"/>
    </contour>
  </outline>
</glyph>
<glyph name="tildecomb" format="1">
  <advance width="548"/>
  <unicode hex="0303"/>
  <outline>
    <contour>
      <point x="423" y="719"/>
      <point x="395" y="725"/>
      <point x="368" y="725" type="curve" smooth="yes"/>
      <point x="283" y="725"/>
      <point x="212" y="666"/>
      <point x="134" y="666" type="curve" smooth="yes"/>
      <point x="97" y="666"/>
      <point x="70" y="681"/>
      <point x="70" y="729" type="curve" smooth="yes"/>
      <point x="70" y="758"/>
      <point x="80" y="797"/>
      <point x="97" y="834" type="curve"/>
      <point x="125" y="820"/>
      <point x="153" y="814"/>
      <point x="180" y="814" type="curve" smooth="yes"/>
      <point x="265" y="814"/>
      <point x="336" y="873"/>
      <point x="414" y="873" type="curve" smooth="yes"/>
      <point x="451" y="873"/>
      <point x="478" y="858"/>
      <point x="478" y="810" type="curve" smooth="yes"/>
      <point x="478" y="781"/>
      <point x="468" y="742"/>
      <point x="451" y="705" type="curve"/>
    </contour>
    <contour>
      <point x="312" y="873" type="move" name="top"/>
    </contour>
    <contour>
      <point x="260" y="575" type="move" name="_top"/>
    </contour>
  </outline>
</glyph>
<glyph name="uni0306" format="1">
  <advance width="430"/>
  <unicode hex="0306"/>
  <outline>
    <contour>
      <point x="220" y="762"/>
      <point x="195" y="804"/>
      <point x="199" y="876" type="curve"/>
      <point x="138" y="863"/>
      <point x="98" y="815"/>
      <point x="98" y="772" type="curve" smooth="yes"/>
      <point x="98" y="715"/>
      <point x="158" y="669"/>
      <point x="272" y="669" type="curve" smooth="yes"/>
      <point x="396" y="669"/>
      <point x="491" y="732"/>
      <point x="491" y="808" type="curve" smooth="yes"/>
      <point x="491" y="858"/>
      <point x="453" y="884"/>
      <point x="391" y="886" type="curve"/>
      <point x="391" y="810"/>
      <point x="340" y="762"/>
      <point x="283" y="762" type="curve" smooth="yes"/>
    </contour>
    <contour>
      <point x="291" y="846" type="move" name="top"/>
    </contour>
    <contour>
      <point x="268" y="575" type="move" name="_top"/>
    </contour>
  </outline>
</glyph>
<glyph name="uni0307" format="1">
  <advance width="406"/>
  <unicode hex="0307"/>
  <outline>
    <contour>
      <point x="132" y="661"/>
      <point x="98" y="692"/>
      <point x="98" y="738" type="curve" smooth="yes"/>
      <point x="98" y="807"/>
      <point x="149" y="853"/>
      <point x="219" y="853" type="curve" smooth="yes"/>
      <point x="274" y="853"/>
      <point x="309" y="822"/>
      <point x="309" y="775" type="curve" smooth="yes"/>
      <point x="309" y="707"/>
      <point x="257" y="661"/>
      <point x="187" y="661" type="curve" smooth="yes"/>
    </contour>
    <contour>
      <point x="224" y="883" type="move" name="top"/>
    </contour>
    <contour>
      <point x="169" y="575" type="move" name="_top"/>
    </contour>
  </outline>
</glyph>
<glyph name="uni0308" format="1">
  <advance width="632"/>
  <unicode hex="0308"/>
  <outline>
    <contour>
      <point x="544" y="655"/>
      <point x="598" y="699"/>
      <point x="598" y="764" type="curve" smooth="yes"/>
      <point x="598" y="816"/>
      <point x="561" y="847"/>
      <point x="510" y="847" type="curve" smooth="yes"/>
      <point x="458" y="847"/>
      <point x="387" y="811"/>
      <point x="387" y="738" type="curve" smooth="yes"/>
      <point x="387" y="686"/>
      <point x="428" y="655"/>
      <point x="484" y="655" type="curve" smooth="yes"/>
    </contour>
    <contour>
      <point x="247" y="655"/>
      <point x="305" y="699"/>
      <point x="305" y="764" type="curve" smooth="yes"/>
      <point x="305" y="816"/>
      <point x="264" y="847"/>
      <point x="208" y="847" type="curve" smooth="yes"/>
      <point x="160" y="847"/>
      <point x="94" y="811"/>
      <point x="94" y="738" type="curve" smooth="yes"/>
      <point x="94" y="686"/>
      <point x="131" y="655"/>
      <point x="182" y="655" type="curve" smooth="yes"/>
    </contour>
    <contour>
      <point x="363" y="847" type="move" name="top"/>
    </contour>
    <contour>
      <point x="335" y="575" type="move" name="_top"/>
    </contour>
  </outline>
</glyph>
<glyph name="uni030A" format="1">
  <advance width="482"/>
  <unicode hex="030A"/>
  <outline>
    <contour>
      <point x="206" y="698"/>
      <point x="188" y="723"/>
      <point x="188" y="760" type="curve" smooth="yes"/>
      <point x="188" y="794"/>
      <point x="199" y="828"/>
      <point x="217" y="851" type="curve"/>
      <point x="230" y="853"/>
      <point x="236" y="855"/>
      <point x="249" y="855" type="curve" smooth="yes"/>
      <point x="280" y="856"/>
      <point x="295" y="836"/>
      <point x="295" y="796" type="curve" smooth="yes"/>
      <point x="295" y="737"/>
      <point x="270" y="698"/>
      <point x="233" y="697" type="curve" smooth="yes"/>
    </contour>
    <contour>
      <point x="337" y="623"/>
      <point x="412" y="692"/>
      <point x="412" y="795" type="curve" smooth="yes"/>
      <point x="412" y="877"/>
      <point x="352" y="928"/>
      <point x="255" y="928" type="curve" smooth="yes"/>
      <point x="144" y="928"/>
      <point x="69" y="858"/>
      <point x="69" y="756" type="curve" smooth="yes"/>
      <point x="69" y="674"/>
      <point x="129" y="623"/>
      <point x="226" y="623" type="curve" smooth="yes"/>
    </contour>
    <contour>
      <point x="257" y="898" type="move" name="top"/>
    </contour>
    <contour>
      <point x="219" y="563" type="move" name="_top"/>
    </contour>
  </outline>
</glyph>
<glyph name="uni030B" format="1">
  <advance width="664"/>
  <unicode hex="030B"/>
  <outline>
    <contour>
      <point x="139" y="653"/>
      <point x="184" y="718"/>
      <point x="306" y="718" type="curve"/>
      <point x="312" y="742"/>
      <point x="315" y="768"/>
      <point x="315" y="791" type="curve" smooth="yes"/>
      <point x="315" y="846"/>
      <point x="294" y="876"/>
      <point x="255" y="876" type="curve" smooth="yes"/>
      <point x="178" y="876"/>
      <point x="99" y="758"/>
      <point x="18" y="729" type="curve"/>
      <point x="20" y="681"/>
      <point x="40" y="653"/>
      <point x="72" y="653" type="curve" smooth="yes"/>
    </contour>
    <contour>
      <point x="470" y="653"/>
      <point x="515" y="718"/>
      <point x="638" y="718" type="curve"/>
      <point x="643" y="742"/>
      <point x="646" y="768"/>
      <point x="646" y="791" type="curve" smooth="yes"/>
      <point x="646" y="846"/>
      <point x="625" y="876"/>
      <point x="587" y="876" type="curve" smooth="yes"/>
      <point x="509" y="876"/>
      <point x="430" y="758"/>
      <point x="349" y="729" type="curve"/>
      <point x="351" y="681"/>
      <point x="371" y="653"/>
      <point x="403" y="653" type="curve" smooth="yes"/>
    </contour>
    <contour>
      <point x="332" y="575" type="move" name="_top"/>
    </contour>
  </outline>
</glyph>
<glyph name="uni0312" format="1">
  <advance width="300"/>
  <unicode hex="0312"/>
  <outline>
    <contour>
      <point x="194" y="875" type="line"/>
      <point x="199" y="909"/>
      <point x="238" y="959"/>
      <point x="293" y="981" type="curve"/>
      <point x="284" y="1021" type="line"/>
      <point x="152" y="996"/>
      <point x="31" y="890"/>
      <point x="31" y="775" type="curve" smooth="yes"/>
      <point x="31" y="726"/>
      <point x="60" y="684"/>
      <point x="117" y="684" type="curve" smooth="yes"/>
      <point x="178" y="684"/>
      <point x="238" y="735"/>
      <point x="248" y="793" type="curve"/>
    </contour>
    <contour>
      <point x="184" y="1051" type="move" name="top"/>
    </contour>
    <contour>
      <point x="100" y="575" type="move" name="_top"/>
    </contour>
  </outline>
</glyph>
<glyph name="uni031B" format="1">
  <advance width="202"/>
  <unicode hex="031B"/>
  <outline>
    <contour>
      <point x="47" y="710" type="line"/>
      <point x="221" y="710"/>
      <point x="338" y="808"/>
      <point x="338" y="953" type="curve"/>
      <point x="169" y="905" type="line"/>
      <point x="169" y="812"/>
      <point x="136" y="762"/>
      <point x="75" y="762" type="curve"/>
    </contour>
    <contour>
      <point x="75" y="762" type="move" name="_topright"/>
    </contour>
    <contour>
      <point x="151" y="575" type="move" name="topright"/>
    </contour>
  </outline>
</glyph>
<glyph name="dotbelowcomb" format="1">
  <advance width="208"/>
  <unicode hex="0323"/>
  <outline>
    <contour>
      <point x="-42" y="-279"/>
      <point x="-76" y="-248"/>
      <point x="-76" y="-202" type="curve" smooth="yes"/>
      <point x="-76" y="-133"/>
      <point x="-25" y="-89"/>
      <point x="45" y="-89" type="curve" smooth="yes"/>
      <point x="100" y="-89"/>
      <point x="135" y="-118"/>
      <point x="135" y="-165" type="curve" smooth="yes"/>
      <point x="135" y="-233"/>
      <point x="83" y="-279"/>
      <point x="13" y="-279" type="curve" smooth="yes"/>
    </contour>
    <contour>
      <point x="59" y="0" type="move" name="_bottom"/>
    </contour>
    <contour>
      <point x="14" y="-279" type="move" name="bottom"/>
    </contour>
  </outline>
</glyph>
<glyph name="uni0326" format="1">
  <advance width="300"/>
  <unicode hex="0326"/>
  <outline>
    <contour>
      <point x="97" y="-280" type="line"/>
      <point x="92" y="-314"/>
      <point x="53" y="-364"/>
      <point x="-2" y="-386" type="curve"/>
      <point x="7" y="-426" type="line"/>
      <point x="139" y="-401"/>
      <point x="260" y="-295"/>
      <point x="260" y="-180" type="curve" smooth="yes"/>
      <point x="260" y="-131"/>
      <point x="231" y="-89"/>
      <point x="174" y="-89" type="curve" smooth="yes"/>
      <point x="113" y="-89"/>
      <point x="53" y="-140"/>
      <point x="43" y="-198" type="curve"/>
    </contour>
    <contour>
      <point x="148" y="0" type="move" name="_bottom"/>
    </contour>
    <contour>
      <point x="148" y="-493" type="move" name="bottom"/>
    </contour>
  </outline>
</glyph>
<glyph name="uni0327" format="1">
  <advance width="402"/>
  <unicode hex="0327"/>
  <outline>
    <contour>
      <point x="270" y="-287"/>
      <point x="349" y="-228"/>
      <point x="349" y="-154" type="curve" smooth="yes"/>
      <point x="349" y="-85"/>
      <point x="273" y="-39"/>
      <point x="159" y="-39" type="curve"/>
      <point x="208" y="-65"/>
      <point x="235" y="-107"/>
      <point x="235" y="-155" type="curve" smooth="yes"/>
      <point x="235" y="-195"/>
      <point x="208" y="-220"/>
      <point x="165" y="-220" type="curve" smooth="yes"/>
      <point x="137" y="-220"/>
      <point x="120" y="-203"/>
      <point x="120" y="-177" type="curve" smooth="yes"/>
      <point x="120" y="-146"/>
      <point x="134" y="-124"/>
      <point x="160" y="-112" type="curve"/>
      <point x="86" y="-112"/>
      <point x="27" y="-153"/>
      <point x="27" y="-203" type="curve" smooth="yes"/>
      <point x="27" y="-254"/>
      <point x="83" y="-287"/>
      <point x="169" y="-287" type="curve" smooth="yes"/>
    </contour>
    <contour>
      <point x="215" y="14" type="move" name="_bottom"/>
    </contour>
    <contour>
      <point x="157" y="-287" type="move" name="bottom"/>
    </contour>
  </outline>
</glyph>
<glyph name="uni0328" format="1">
  <advance width="317"/>
  <unicode hex="0328"/>
  <outline>
    <contour>
      <point x="239" y="36" type="line"/>
      <point x="93" y="0"/>
      <point x="20" y="-68"/>
      <point x="20" y="-168" type="curve" smooth="yes"/>
      <point x="20" y="-231"/>
      <point x="73" y="-276"/>
      <point x="146" y="-276" type="curve" smooth="yes"/>
      <point x="233" y="-276"/>
      <point x="297" y="-211"/>
      <point x="297" y="-124" type="curve"/>
      <point x="268" y="-148"/>
      <point x="238" y="-160"/>
      <point x="205" y="-160" type="curve" smooth="yes"/>
      <point x="169" y="-160"/>
      <point x="149" y="-141"/>
      <point x="149" y="-107" type="curve" smooth="yes"/>
      <point x="149" y="-55"/>
      <point x="190" y="-10"/>
      <point x="279" y="36" type="curve"/>
    </contour>
    <contour>
      <point x="279" y="36" type="move" name="_ogonek"/>
    </contour>
  </outline>
</glyph>
<glyph name="uni0335" format="1">
  <advance width="733"/>
  <unicode hex="0335"/>
  <outline>
    <contour>
      <point x="294" y="288"/>
      <point x="386" y="313"/>
      <point x="485" y="313" type="curve" smooth="yes"/>
      <point x="523" y="313"/>
      <point x="563" y="307"/>
      <point x="595" y="297" type="curve"/>
      <point x="607" y="326"/>
      <point x="614" y="354"/>
      <point x="614" y="377" type="curve" smooth="yes"/>
      <point x="614" y="426"/>
      <point x="596" y="440"/>
      <point x="533" y="440" type="curve" smooth="yes"/>
      <point x="440" y="440"/>
      <point x="348" y="415"/>
      <point x="249" y="415" type="curve" smooth="yes"/>
      <point x="211" y="415"/>
      <point x="171" y="421"/>
      <point x="139" y="431" type="curve"/>
      <point x="127" y="402"/>
      <point x="120" y="374"/>
      <point x="120" y="351" type="curve" smooth="yes"/>
      <point x="120" y="302"/>
      <point x="138" y="288"/>
      <point x="201" y="288" type="curve" smooth="yes"/>
    </contour>
    <contour>
      <point x="367" y="364" type="move" name="_center"/>
    </contour>
  </outline>
</glyph>
<glyph name="uni0336" format="1">
  <advance width="869"/>
  <unicode hex="0336"/>
  <outline>
    <contour>
      <point x="337" y="286"/>
      <point x="486" y="313"/>
      <point x="629" y="313" type="curve" smooth="yes"/>
      <point x="704" y="313"/>
      <point x="788" y="307"/>
      <point x="831" y="298" type="curve"/>
      <point x="844" y="319"/>
      <point x="850" y="344"/>
      <point x="850" y="371" type="curve" smooth="yes"/>
      <point x="850" y="426"/>
      <point x="818" y="442"/>
      <point x="708" y="442" type="curve" smooth="yes"/>
      <point x="556" y="442"/>
      <point x="408" y="415"/>
      <point x="265" y="415" type="curve" smooth="yes"/>
      <point x="189" y="415"/>
      <point x="103" y="421"/>
      <point x="62" y="430" type="curve"/>
      <point x="49" y="409"/>
      <point x="43" y="384"/>
      <point x="43" y="357" type="curve" smooth="yes"/>
      <point x="43" y="302"/>
      <point x="75" y="286"/>
      <point x="185" y="286" type="curve" smooth="yes"/>
    </contour>
    <contour>
      <point x="447" y="364" type="move" name="_center"/>
    </contour>
  </outline>
</glyph>
<glyph name="uni0337" format="1">
  <advance width="469"/>
  <unicode hex="0337"/>
  <outline>
    <component base="uni0335" xOffset="26" yOffset="-104" xScale="0.94" yScale="0.94" xyScale="0.342" yxScale="-0.342"/>
    <contour>
      <point x="246" y="364" type="move" name="_center"/>
    </contour>
  </outline>
</glyph>
<glyph name="uni0338" format="1">
  <advance width="398"/>
  <unicode hex="0338"/>
  <outline>
    <component base="slash"/>
    <contour>
      <point x="199" y="378" type="move" name="_center"/>
    </contour>
  </outline>
</glyph>
<glyph name="pi" format="1">
  <advance width="819"/>
  <unicode hex="03C0"/>
  <outline>
    <contour>
      <point x="622" y="-25"/>
      <point x="664" y="-9"/>
      <point x="702" y="24" type="curve"/>
      <point x="681" y="42"/>
      <point x="672" y="74"/>
      <point x="672" y="113" type="curve" smooth="yes"/>
      <point x="672" y="240"/>
      <point x="743" y="476"/>
      <point x="743" y="526" type="curve"/>
      <point x="541" y="503" type="line"/>
      <point x="514" y="364"/>
      <point x="467" y="167"/>
      <point x="467" y="97" type="curve" smooth="yes"/>
      <point x="467" y="18"/>
      <point x="499" y="-25"/>
      <point x="583" y="-25" type="curve" smooth="yes"/>
    </contour>
    <contour>
      <point x="340" y="445"/>
      <point x="480" y="472"/>
      <point x="614" y="472" type="curve" smooth="yes"/>
      <point x="688" y="472"/>
      <point x="771" y="466"/>
      <point x="812" y="457" type="curve"/>
      <point x="824" y="479"/>
      <point x="830" y="504"/>
      <point x="830" y="531" type="curve" smooth="yes"/>
      <point x="830" y="585"/>
      <point x="799" y="601"/>
      <point x="694" y="601" type="curve" smooth="yes"/>
      <point x="553" y="601"/>
      <point x="414" y="574"/>
      <point x="280" y="574" type="curve" smooth="yes"/>
      <point x="206" y="574"/>
      <point x="120" y="580"/>
      <point x="81" y="589" type="curve"/>
      <point x="69" y="567"/>
      <point x="63" y="542"/>
      <point x="63" y="515" type="curve" smooth="yes"/>
      <point x="63" y="461"/>
      <point x="94" y="445"/>
      <point x="199" y="445" type="curve" smooth="yes"/>
    </contour>
    <contour>
      <point x="255" y="-25"/>
      <point x="296" y="-9"/>
      <point x="334" y="24" type="curve"/>
      <point x="314" y="42"/>
      <point x="304" y="74"/>
      <point x="304" y="113" type="curve" smooth="yes"/>
      <point x="304" y="240"/>
      <point x="375" y="476"/>
      <point x="376" y="526" type="curve"/>
      <point x="174" y="503" type="line"/>
      <point x="147" y="364"/>
      <point x="100" y="167"/>
      <point x="100" y="97" type="curve" smooth="yes"/>
      <point x="100" y="18"/>
      <point x="132" y="-25"/>
      <point x="216" y="-25" type="curve" smooth="yes"/>
    </contour>
    <contour>
      <point x="336" y="24" type="move" name="ogonek"/>
    </contour>
    <contour>
      <point x="178" y="0" type="move" name="bottom"/>
    </contour>
    <contour>
      <point x="280" y="575" type="move" name="top"/>
    </contour>
  </outline>
</glyph>
<glyph name="endash" format="1">
  <advance width="679"/>
  <unicode hex="2013"/>
  <outline>
    <contour>
      <point x="250" y="183"/>
      <point x="361" y="219"/>
      <point x="485" y="219" type="curve" smooth="yes"/>
      <point x="529" y="219"/>
      <point x="578" y="211"/>
      <point x="624" y="196" type="curve"/>
      <point x="642" y="245"/>
      <point x="652" y="289"/>
      <point x="652" y="324" type="curve" smooth="yes"/>
      <point x="652" y="382"/>
      <point x="627" y="399"/>
      <point x="540" y="399" type="curve" smooth="yes"/>
      <point x="430" y="399"/>
      <point x="319" y="363"/>
      <point x="195" y="363" type="curve" smooth="yes"/>
      <point x="150" y="363"/>
      <point x="101" y="371"/>
      <point x="56" y="386" type="curve"/>
      <point x="38" y="337"/>
      <point x="28" y="294"/>
      <point x="28" y="258" type="curve" smooth="yes"/>
      <point x="28" y="200"/>
      <point x="53" y="183"/>
      <point x="139" y="183" type="curve" smooth="yes"/>
    </contour>
  </outline>
</glyph>
<glyph name="emdash" format="1">
  <advance width="891"/>
  <unicode hex="2014"/>
  <outline>
    <contour>
      <point x="319" y="183"/>
      <point x="484" y="219"/>
      <point x="652" y="219" type="curve" smooth="yes"/>
      <point x="720" y="219"/>
      <point x="791" y="210"/>
      <point x="836" y="196" type="curve"/>
      <point x="853" y="234"/>
      <point x="862" y="275"/>
      <point x="862" y="313" type="curve" smooth="yes"/>
      <point x="862" y="379"/>
      <point x="836" y="399"/>
      <point x="741" y="399" type="curve" smooth="yes"/>
      <point x="574" y="399"/>
      <point x="409" y="363"/>
      <point x="241" y="363" type="curve" smooth="yes"/>
      <point x="175" y="363"/>
      <point x="105" y="372"/>
      <point x="56" y="386" type="curve"/>
      <point x="39" y="346"/>
      <point x="30" y="305"/>
      <point x="30" y="269" type="curve" smooth="yes"/>
      <point x="30" y="203"/>
      <point x="58" y="183"/>
      <point x="152" y="183" type="curve" smooth="yes"/>
    </contour>
  </outline>
</glyph>
<glyph name="ellipsis" format="1">
  <advance width="959"/>
  <unicode hex="2026"/>
  <outline>
    <contour>
      <point x="30" y="147"/>
      <point x="86" y="207"/>
      <point x="156" y="207" type="curve" smooth="yes"/>
      <point x="217" y="207"/>
      <point x="263" y="161"/>
      <point x="263" y="102" type="curve" smooth="yes"/>
      <point x="263" y="35"/>
      <point x="207" y="-25"/>
      <point x="137" y="-25" type="curve" smooth="yes"/>
      <point x="76" y="-25"/>
      <point x="30" y="21"/>
      <point x="30" y="80" type="curve" smooth="yes"/>
    </contour>
    <contour>
      <point x="363" y="147"/>
      <point x="419" y="207"/>
      <point x="489" y="207" type="curve" smooth="yes"/>
      <point x="550" y="207"/>
      <point x="596" y="161"/>
      <point x="596" y="102" type="curve" smooth="yes"/>
      <point x="596" y="35"/>
      <point x="540" y="-25"/>
      <point x="470" y="-25" type="curve" smooth="yes"/>
      <point x="409" y="-25"/>
      <point x="363" y="21"/>
      <point x="363" y="80" type="curve" smooth="yes"/>
    </contour>
    <contour>
      <point x="696" y="147"/>
      <point x="752" y="207"/>
      <point x="822" y="207" type="curve" smooth="yes"/>
      <point x="883" y="207"/>
      <point x="929" y="161"/>
      <point x="929" y="102" type="curve" smooth="yes"/>
      <point x="929" y="35"/>
      <point x="873" y="-25"/>
      <point x="803" y="-25" type="curve" smooth="yes"/>
      <point x="742" y="-25"/>
      <point x="696" y="21"/>
      <point x="696" y="80" type="curve" smooth="yes"/>
    </contour>
  </outline>
</glyph>
<glyph name="guilsinglleft" format="1">
  <advance width="382"/>
  <unicode hex="2039"/>
  <outline>
    <contour>
      <point x="141" y="447"/>
      <point x="31" y="353"/>
      <point x="31" y="288" type="curve" smooth="yes"/>
      <point x="31" y="238"/>
      <point x="126" y="111"/>
      <point x="195" y="25" type="curve"/>
      <point x="263" y="25"/>
      <point x="302" y="73"/>
      <point x="302" y="111" type="curve" smooth="yes"/>
      <point x="302" y="173"/>
      <point x="255" y="221"/>
      <point x="180" y="300" type="curve"/>
      <point x="260" y="365"/>
      <point x="360" y="399"/>
      <point x="360" y="472" type="curve" smooth="yes"/>
      <point x="360" y="510"/>
      <point x="334" y="549"/>
      <point x="266" y="549" type="curve"/>
    </contour>
  </outline>
</glyph>
<glyph name="uni2113" format="1">
  <advance width="429"/>
  <unicode hex="2113"/>
  <outline>
    <contour>
      <point x="236" y="-25"/>
      <point x="307" y="3"/>
      <point x="366" y="82" type="curve"/>
      <point x="337" y="119" type="line"/>
      <point x="321" y="105"/>
      <point x="308" y="99"/>
      <point x="297" y="99" type="curve" smooth="yes"/>
      <point x="277" y="99"/>
      <point x="266" y="116"/>
      <point x="266" y="142" type="curve" smooth="yes"/>
      <point x="266" y="183"/>
      <point x="272" y="232"/>
      <point x="281" y="285" type="curve"/>
      <point x="358" y="385"/>
      <point x="419" y="528"/>
      <point x="419" y="634" type="curve" smooth="yes"/>
      <point x="419" y="716"/>
      <point x="386" y="775"/>
      <point x="302" y="775" type="curve" smooth="yes"/>
      <point x="215" y="775"/>
      <point x="143" y="690"/>
      <point x="121" y="548" type="curve" smooth="yes"/>
      <point x="101" y="417"/>
      <point x="61" y="175"/>
      <point x="61" y="109" type="curve" smooth="yes"/>
      <point x="61" y="19"/>
      <point x="105" y="-25"/>
      <point x="179" y="-25" type="curve" smooth="yes"/>
    </contour>
    <contour>
      <point x="352" y="732" type="line"/>
      <point x="377" y="716"/>
      <point x="389" y="684"/>
      <point x="389" y="634" type="curve" smooth="yes"/>
      <point x="389" y="554"/>
      <point x="351" y="446"/>
      <point x="292" y="353" type="curve"/>
    </contour>
  </outline>
</glyph>
<glyph name="estimated" format="1">
  <advance width="600"/>
  <unicode hex="212E"/>
  <outline>
    <contour>
      <point x="149" y="-17"/>
      <point x="44" y="95"/>
      <point x="44" y="259" type="curve" smooth="yes"/>
      <point x="44" y="426"/>
      <point x="146" y="535"/>
      <point x="302" y="535" type="curve" smooth="yes"/>
      <point x="456" y="535"/>
      <point x="553" y="432"/>
      <point x="561" y="259" type="curve"/>
      <point x="157" y="259" type="line"/>
      <point x="157" y="78" type="line"/>
      <point x="198" y="39"/>
      <point x="247" y="19"/>
      <point x="302" y="19" type="curve" smooth="yes"/>
      <point x="385" y="19"/>
      <point x="449" y="59"/>
      <point x="495" y="139" type="curve"/>
      <point x="530" y="118" type="line"/>
      <point x="452" y="15"/>
      <point x="398" y="-17"/>
      <point x="302" y="-17" type="curve" smooth="yes"/>
    </contour>
    <contour>
      <point x="448" y="295" type="line"/>
      <point x="448" y="440" type="line"/>
      <point x="406" y="480"/>
      <point x="357" y="500"/>
      <point x="301" y="500" type="curve" smooth="yes"/>
      <point x="244" y="500"/>
      <point x="196" y="480"/>
      <point x="157" y="440" type="curve"/>
      <point x="157" y="295" type="line"/>
    </contour>
  </outline>
</glyph>
<glyph name="partialdiff" format="1">
  <advance width="723"/>
  <unicode hex="2202"/>
  <outline>
    <contour>
      <point x="513" y="-200"/>
      <point x="654" y="-33"/>
      <point x="654" y="212" type="curve" smooth="yes"/>
      <point x="654" y="488"/>
      <point x="464" y="752"/>
      <point x="265" y="752" type="curve" smooth="yes"/>
      <point x="186" y="752"/>
      <point x="137" y="706"/>
      <point x="137" y="631" type="curve"/>
      <point x="334" y="631"/>
      <point x="491" y="411"/>
      <point x="491" y="166" type="curve" smooth="yes"/>
      <point x="491" y="13"/>
      <point x="424" y="-97"/>
      <point x="331" y="-97" type="curve" smooth="yes"/>
      <point x="257" y="-97"/>
      <point x="218" y="-43"/>
      <point x="218" y="61" type="curve" smooth="yes"/>
      <point x="218" y="220"/>
      <point x="328" y="334"/>
      <point x="480" y="334" type="curve"/>
      <point x="481" y="369"/>
      <point x="478" y="398"/>
      <point x="471" y="417" type="curve"/>
      <point x="449" y="423"/>
      <point x="429" y="425"/>
      <point x="400" y="425" type="curve" smooth="yes"/>
      <point x="178" y="425"/>
      <point x="20" y="277"/>
      <point x="20" y="70" type="curve" smooth="yes"/>
      <point x="20" y="-95"/>
      <point x="132" y="-200"/>
      <point x="307" y="-200" type="curve" smooth="yes"/>
    </contour>
  </outline>
</glyph>
<glyph name="uni0394" format="1">
  <advance width="911"/>
  <unicode hex="2206"/>
  <outline>
    <contour>
      <point x="585" y="714" type="line" smooth="yes"/>
      <point x="568" y="759"/>
      <point x="546" y="778"/>
      <point x="524" y="778" type="curve" smooth="yes"/>
      <point x="470" y="778" type="line" smooth="yes"/>
      <point x="447" y="778"/>
      <point x="419" y="764"/>
      <point x="391" y="716" type="curve" smooth="yes"/>
      <point x="11" y="67" type="line"/>
      <point x="3" y="55"/>
      <point x="0" y="44"/>
      <point x="0" y="34" type="curve" smooth="yes"/>
      <point x="0" y="13"/>
      <point x="16" y="0"/>
      <point x="47" y="0" type="curve" smooth="yes"/>
      <point x="782" y="0" type="line" smooth="yes"/>
      <point x="814" y="0"/>
      <point x="831" y="15"/>
      <point x="831" y="39" type="curve" smooth="yes"/>
      <point x="831" y="48"/>
      <point x="830" y="56"/>
      <point x="826" y="66" type="curve" smooth="yes"/>
    </contour>
    <contour>
      <point x="607" y="119" type="line"/>
      <point x="638" y="186" type="line"/>
      <point x="219" y="186" type="line"/>
      <point x="259" y="122" type="line"/>
      <point x="500" y="534" type="line"/>
      <point x="453" y="538" type="line"/>
    </contour>
  </outline>
</glyph>
<glyph name="product" format="1">
  <advance width="849"/>
  <unicode hex="220F"/>
  <outline>
    <contour>
      <point x="483" y="15"/>
      <point x="519" y="-25"/>
      <point x="605" y="-25" type="curve" smooth="yes"/>
      <point x="650" y="-25"/>
      <point x="690" y="-11"/>
      <point x="729" y="20" type="curve"/>
      <point x="707" y="51"/>
      <point x="699" y="84"/>
      <point x="699" y="145" type="curve" smooth="yes"/>
      <point x="699" y="222"/>
      <point x="776" y="564"/>
      <point x="776" y="632" type="curve"/>
      <point x="560" y="632" type="line"/>
      <point x="498" y="282"/>
      <point x="483" y="179"/>
      <point x="483" y="110" type="curve" smooth="yes"/>
    </contour>
    <contour>
      <point x="101" y="15"/>
      <point x="137" y="-25"/>
      <point x="223" y="-25" type="curve" smooth="yes"/>
      <point x="268" y="-25"/>
      <point x="308" y="-11"/>
      <point x="347" y="20" type="curve"/>
      <point x="325" y="51"/>
      <point x="317" y="84"/>
      <point x="317" y="145" type="curve" smooth="yes"/>
      <point x="317" y="222"/>
      <point x="394" y="564"/>
      <point x="394" y="632" type="curve"/>
      <point x="178" y="632" type="line"/>
      <point x="116" y="282"/>
      <point x="101" y="179"/>
      <point x="101" y="110" type="curve" smooth="yes"/>
    </contour>
    <component base="uni0336" xOffset="31" yOffset="258"/>
  </outline>
</glyph>
<glyph name="radical" format="1">
  <advance width="767"/>
  <unicode hex="221A"/>
  <outline>
    <contour>
      <point x="101" y="-174"/>
      <point x="155" y="-236"/>
      <point x="288" y="-236" type="curve" smooth="yes"/>
      <point x="345" y="-236"/>
      <point x="438" y="-214"/>
      <point x="478" y="-184" type="curve"/>
      <point x="801" y="827" type="line"/>
      <point x="639" y="933" type="line"/>
      <point x="305" y="-114" type="line"/>
      <point x="295" y="-114" type="line"/>
      <point x="298" y="-50"/>
      <point x="300" y="60"/>
      <point x="300" y="143" type="curve" smooth="yes"/>
      <point x="300" y="334"/>
      <point x="249" y="389"/>
      <point x="165" y="389" type="curve" smooth="yes"/>
      <point x="122" y="389"/>
      <point x="83" y="375"/>
      <point x="46" y="346" type="curve"/>
      <point x="114" y="276"/>
      <point x="101" y="144"/>
      <point x="101" y="-21" type="curve" smooth="yes"/>
    </contour>
    <contour>
      <point x="1116" y="770" type="line"/>
      <point x="1134" y="811"/>
      <point x="1144" y="849"/>
      <point x="1144" y="878" type="curve" smooth="yes"/>
      <point x="1144" y="920"/>
      <point x="1123" y="933"/>
      <point x="1052" y="933" type="curve" smooth="yes"/>
      <point x="639" y="933" type="line"/>
      <point x="637" y="770" type="line"/>
    </contour>
  </outline>
</glyph>
<glyph name="integral" format="1">
  <advance width="490"/>
  <unicode hex="222B"/>
  <outline>
    <contour>
      <point x="253" y="-235"/>
      <point x="305" y="-149"/>
      <point x="323" y="45" type="curve" smooth="yes"/>
      <point x="368" y="488" type="line" smooth="yes"/>
      <point x="376" y="598"/>
      <point x="405" y="669"/>
      <point x="503" y="683" type="curve"/>
      <point x="459" y="761"/>
      <point x="403" y="775"/>
      <point x="350" y="775" type="curve" smooth="yes"/>
      <point x="231" y="775"/>
      <point x="179" y="690"/>
      <point x="161" y="495" type="curve" smooth="yes"/>
      <point x="116" y="52" type="line" smooth="yes"/>
      <point x="108" y="-58"/>
      <point x="79" y="-129"/>
      <point x="-18" y="-143" type="curve"/>
      <point x="25" y="-221"/>
      <point x="81" y="-235"/>
      <point x="134" y="-235" type="curve" smooth="yes"/>
    </contour>
  </outline>
</glyph>
<glyph name="approxequal" format="1">
  <advance width="724"/>
  <unicode hex="2248"/>
  <outline>
    <contour>
      <point x="655" y="500"/>
      <point x="664" y="534"/>
      <point x="664" y="559" type="curve" smooth="yes"/>
      <point x="664" y="599"/>
      <point x="649" y="624"/>
      <point x="593" y="624" type="curve" smooth="yes"/>
      <point x="478" y="624"/>
      <point x="334" y="564"/>
      <point x="159" y="564" type="curve"/>
      <point x="140" y="525"/>
      <point x="131" y="491"/>
      <point x="131" y="466" type="curve" smooth="yes"/>
      <point x="131" y="426"/>
      <point x="146" y="401"/>
      <point x="202" y="401" type="curve" smooth="yes"/>
      <point x="317" y="401"/>
      <point x="461" y="461"/>
      <point x="636" y="461" type="curve"/>
    </contour>
    <contour>
      <point x="610" y="220"/>
      <point x="619" y="254"/>
      <point x="619" y="279" type="curve" smooth="yes"/>
      <point x="619" y="319"/>
      <point x="604" y="344"/>
      <point x="548" y="344" type="curve" smooth="yes"/>
      <point x="433" y="344"/>
      <point x="289" y="284"/>
      <point x="114" y="284" type="curve"/>
      <point x="95" y="245"/>
      <point x="86" y="211"/>
      <point x="86" y="186" type="curve" smooth="yes"/>
      <point x="86" y="146"/>
      <point x="101" y="121"/>
      <point x="157" y="121" type="curve" smooth="yes"/>
      <point x="272" y="121"/>
      <point x="416" y="181"/>
      <point x="591" y="181" type="curve"/>
    </contour>
  </outline>
</glyph>
<glyph name="Y.alt" format="1">
  <advance width="632"/>
  <outline>
    <contour>
      <point x="440" y="234"/>
      <point x="646" y="473"/>
      <point x="646" y="650" type="curve" smooth="yes"/>
      <point x="646" y="701"/>
      <point x="615" y="725"/>
      <point x="554" y="725" type="curve" smooth="yes"/>
      <point x="511" y="725"/>
      <point x="452" y="706"/>
      <point x="421" y="682" type="curve" smooth="yes"/>
      <point x="435" y="654"/>
      <point x="441" y="631"/>
      <point x="441" y="606" type="curve" smooth="yes"/>
      <point x="441" y="526"/>
      <point x="398" y="435"/>
      <point x="325" y="367" type="curve"/>
      <point x="315" y="367" type="line" smooth="yes"/>
      <point x="301" y="633"/>
      <point x="263" y="725"/>
      <point x="160" y="725" type="curve" smooth="yes"/>
      <point x="113" y="725"/>
      <point x="72" y="711"/>
      <point x="32" y="682" type="curve" smooth="yes"/>
      <point x="96" y="631"/>
      <point x="99" y="540"/>
      <point x="117" y="407" type="curve" smooth="yes"/>
      <point x="127" y="287"/>
      <point x="173" y="234"/>
      <point x="283" y="234" type="curve" smooth="yes"/>
    </contour>
    <contour>
      <point x="317" y="-25"/>
      <point x="357" y="-11"/>
      <point x="398" y="20" type="curve"/>
      <point x="377" y="51"/>
      <point x="372" y="84"/>
      <point x="372" y="145" type="curve" smooth="yes"/>
      <point x="372" y="176"/>
      <point x="393" y="271"/>
      <point x="416" y="333" type="curve"/>
      <point x="199" y="333" type="line"/>
      <point x="166" y="205"/>
      <point x="155" y="150"/>
      <point x="155" y="110" type="curve" smooth="yes"/>
      <point x="155" y="15"/>
      <point x="186" y="-25"/>
      <point x="272" y="-25" type="curve" smooth="yes"/>
    </contour>
  </outline>
</glyph>
<glyph name="caroncomb.alt" format="1">
  <advance width="300"/>
  <outline>
    <contour>
      <point x="123" y="651" type="line"/>
      <point x="123" y="607"/>
      <point x="87" y="544"/>
      <point x="28" y="516" type="curve"/>
      <point x="41" y="476" type="line"/>
      <point x="183" y="506"/>
      <point x="272" y="613"/>
      <point x="272" y="736" type="curve" smooth="yes"/>
      <point x="272" y="790"/>
      <point x="237" y="840"/>
      <point x="176" y="840" type="curve" smooth="yes"/>
      <point x="115" y="840"/>
      <point x="63" y="789"/>
      <point x="60" y="732" type="curve"/>
    </contour>
    <contour>
      <point x="0" y="575" type="move" name="_topright"/>
    </contour>
  </outline>
</glyph>
<glyph name="f.alt" format="1">
  <advance width="427"/>
  <outline>
    <contour>
      <point x="272" y="787"/>
      <point x="174" y="655"/>
      <point x="134" y="446" type="curve" smooth="yes"/>
      <point x="78" y="153"/>
      <point x="49" y="-15"/>
      <point x="49" y="-82" type="curve" smooth="yes"/>
      <point x="49" y="-157"/>
      <point x="90" y="-200"/>
      <point x="161" y="-200" type="curve" smooth="yes"/>
      <point x="201" y="-200"/>
      <point x="242" y="-184"/>
      <point x="291" y="-151" type="curve"/>
      <point x="271" y="-134"/>
      <point x="260" y="-102"/>
      <point x="260" y="-60" type="curve" smooth="yes"/>
      <point x="260" y="37"/>
      <point x="305" y="280"/>
      <point x="345" y="502" type="curve" smooth="yes"/>
      <point x="367" y="624"/>
      <point x="399" y="666"/>
      <point x="460" y="666" type="curve" smooth="yes"/>
      <point x="506" y="666"/>
      <point x="537" y="630"/>
      <point x="545" y="580" type="curve"/>
      <point x="612" y="586"/>
      <point x="647" y="626"/>
      <point x="647" y="668" type="curve" smooth="yes"/>
      <point x="647" y="735"/>
      <point x="582" y="787"/>
      <point x="469" y="787" type="curve" smooth="yes"/>
    </contour>
    <component base="uni0335" xOffset="-77" yOffset="149" xScale="0.85" yScale="0.85"/>
  </outline>
</glyph>
<glyph name="two.numr" format="1">
  <advance width="495"/>
  <outline>
    <contour>
      <point x="389" y="439"/>
      <point x="445" y="494"/>
      <point x="445" y="583" type="curve" smooth="yes"/>
      <point x="445" y="651"/>
      <point x="376" y="710"/>
      <point x="277" y="710" type="curve" smooth="yes"/>
      <point x="165" y="710"/>
      <point x="89" y="662"/>
      <point x="89" y="592" type="curve" smooth="yes"/>
      <point x="89" y="554"/>
      <point x="118" y="529"/>
      <point x="165" y="524" type="curve"/>
      <point x="180" y="581"/>
      <point x="209" y="591"/>
      <point x="236" y="591" type="curve" smooth="yes"/>
      <point x="268" y="591"/>
      <point x="282" y="564"/>
      <point x="282" y="544" type="curve" smooth="yes"/>
      <point x="282" y="501"/>
      <point x="252" y="457"/>
      <point x="88" y="390" type="curve"/>
      <point x="241" y="373" type="line"/>
    </contour>
    <contour>
      <point x="423" y="272"/>
      <point x="477" y="314"/>
      <point x="477" y="368" type="curve" smooth="yes"/>
      <point x="477" y="393"/>
      <point x="472" y="417"/>
      <point x="462" y="449" type="curve"/>
      <point x="353" y="390" type="line"/>
      <point x="302" y="390"/>
      <point x="206" y="438"/>
      <point x="160" y="438" type="curve" smooth="yes"/>
      <point x="99" y="438"/>
      <point x="57" y="401"/>
      <point x="57" y="350" type="curve" smooth="yes"/>
      <point x="57" y="304"/>
      <point x="88" y="272"/>
      <point x="133" y="272" type="curve" smooth="yes"/>
      <point x="164" y="272"/>
      <point x="190" y="281"/>
      <point x="220" y="303" type="curve"/>
      <point x="246" y="289"/>
      <point x="293" y="272"/>
      <point x="353" y="272" type="curve" smooth="yes"/>
    </contour>
  </outline>
</glyph>
<glyph name="uni0335.Rhalf" format="1">
  <advance width="271"/>
  <outline>
    <contour>
      <point x="51" y="302"/>
      <point x="98" y="297"/>
      <point x="140" y="297" type="curve" smooth="yes"/>
      <point x="227" y="297"/>
      <point x="251" y="311"/>
      <point x="251" y="360" type="curve" smooth="yes"/>
      <point x="251" y="393"/>
      <point x="240" y="421"/>
      <point x="230" y="440" type="curve"/>
      <point x="199" y="430"/>
      <point x="159" y="424"/>
      <point x="122" y="424" type="curve" smooth="yes"/>
      <point x="86" y="424"/>
      <point x="67" y="426"/>
      <point x="33" y="434" type="curve"/>
      <point x="14" y="312" type="line"/>
    </contour>
    <contour>
      <point x="21" y="364" type="move" name="_center"/>
    </contour>
  </outline>
</glyph>
<glyph name="uni0335.alt" format="1">
  <advance width="448"/>
  <outline>
    <contour>
      <point x="417" y="297"/>
      <point x="455" y="341"/>
      <point x="455" y="408" type="curve" smooth="yes"/>
      <point x="455" y="433"/>
      <point x="444" y="454"/>
      <point x="434" y="468" type="curve"/>
      <point x="405" y="455"/>
      <point x="321" y="424"/>
      <point x="182" y="424" type="curve" smooth="yes"/>
      <point x="135" y="424"/>
      <point x="84" y="430"/>
      <point x="44" y="440" type="curve"/>
      <point x="34" y="421"/>
      <point x="23" y="393"/>
      <point x="23" y="360" type="curve" smooth="yes"/>
      <point x="23" y="311"/>
      <point x="53" y="297"/>
      <point x="164" y="297" type="curve" smooth="yes"/>
    </contour>
    <contour>
      <point x="249" y="364" type="move" name="_center"/>
    </contour>
  </outline>
</glyph>
<glyph name="zero.numr" format="1">
  <advance width="482"/>
  <outline>
    <contour>
      <point x="59" y="611"/>
      <point x="165" y="707"/>
      <point x="324" y="707" type="curve" smooth="yes"/>
      <point x="340" y="707"/>
      <point x="364" y="703"/>
      <point x="377" y="698" type="curve"/>
      <point x="381" y="694"/>
      <point x="384" y="684"/>
      <point x="385" y="669" type="curve"/>
      <point x="461" y="654"/>
      <point x="501" y="598"/>
      <point x="501" y="509" type="curve" smooth="yes"/>
      <point x="501" y="375"/>
      <point x="398" y="272"/>
      <point x="262" y="272" type="curve" smooth="yes"/>
      <point x="138" y="272"/>
      <point x="59" y="348"/>
      <point x="59" y="469" type="curve" smooth="yes"/>
    </contour>
    <contour>
      <point x="306" y="394"/>
      <point x="334" y="439"/>
      <point x="334" y="504" type="curve" smooth="yes"/>
      <point x="334" y="542"/>
      <point x="318" y="561"/>
      <point x="284" y="561" type="curve" smooth="yes"/>
      <point x="276" y="561"/>
      <point x="267" y="560"/>
      <point x="258" y="556" type="curve"/>
      <point x="240" y="542"/>
      <point x="226" y="493"/>
      <point x="226" y="460" type="curve" smooth="yes"/>
      <point x="226" y="419"/>
      <point x="241" y="394"/>
      <point x="266" y="394" type="curve" smooth="yes"/>
    </contour>
  </outline>
</glyph>
